<?xml version="1.0" encoding="utf-8"?>
<!-- Generator: Adobe Illustrator 27.9.0, SVG Export Plug-In . SVG Version: 6.00 Build 0)  -->
<svg version="1.1" xmlns="http://www.w3.org/2000/svg" xmlns:xlink="http://www.w3.org/1999/xlink" x="0px" y="0px"
	 viewBox="0 0 429.6 429.6" style="enable-background:new 0 0 429.6 429.6;" xml:space="preserve">
<style type="text/css">
	.st0{fill:#55B78F;}
	.st1{display:none;}
	.st2{display:inline;}
	.st3{fill-rule:evenodd;clip-rule:evenodd;fill:#EDE537;}
	.st4{fill-rule:evenodd;clip-rule:evenodd;fill:#FFFFFF;}
	.st5{fill:#EDE537;}
	.st6{fill:#FFED00;}
</style>
<g id="Background_Circle">
	<circle class="st0" cx="214.8" cy="214.8" r="214.8"/>
</g>
<g id="Marketing-Meister" class="st1">
	<g class="st2">
		<path class="st3" d="M213.7,378.9c-2.5-1.1-5-2.2-7.5-2.8c-2.5-0.6-5-0.7-7.5,0c-2.5,0.7-5.1,2.3-8.9,4.4
			c-3.8,2.1-8.9,4.8-16.2,6.6c-7.3,1.7-16.8,2.5-25.3,2.1c-8.5-0.4-15.9-2-22.6-4.4c-6.7-2.5-12.5-5.8-15.4-7.5
			c-2.9-1.7-2.8-1.9-1.8-2.6c1-0.7,2.9-2.1,7.3-4.1c4.3-2,11.1-4.7,16.5-6.5c5.5-1.7,9.6-2.5,12.4-2.9c2.8-0.4,4.3-0.6,5.8-0.7
			c-2.3-1-4.6-2-7-2.4c-2.4-0.3-4.8,0-9.1,0.1c-4.3,0.1-10.4-0.2-17.6-1.2c-7.3-1.1-15.7-3-21.8-4.9c-6.1-1.9-10-3.8-14.1-6.4
			c-4.1-2.6-8.5-5.8-12.3-9.2c-3.8-3.4-7.1-7-9-9.2c-1.9-2.3-2.5-3.2-2.7-4c-0.2-0.8-0.1-1.3,1.4-1.8c1.4-0.5,4.1-0.8,8.6-1.1
			c4.5-0.2,10.8-0.3,15.8,0.1c5,0.3,8.6,1.1,11.4,1.8c2.8,0.7,4.9,1.5,7,2.3c-0.9-1.2-1.7-2.5-2.6-3.7c-0.9-1.2-1.8-2.5-4.7-3.9
			c-2.9-1.4-7.7-2.9-12.5-4.4c-6.9-3.9-13.8-7.7-19.2-11.6c-5.4-3.9-9.4-7.8-13-12.5c-3.7-4.7-7.1-10.2-9.9-14.8
			c-2.8-4.6-4.9-8.5-6.6-12.1c-1.7-3.6-2.9-6.9-4.1-10.2c3,0.3,6,0.6,9.6,1.4c3.7,0.8,8,2.1,12.5,4.2c4.5,2.1,9.2,5,12.7,7.6
			c3.5,2.6,5.8,4.9,8,7.2c-0.2-1.4-0.5-2.8-1.2-4.5c-0.7-1.7-1.9-3.6-3.5-5.3c-1.6-1.7-3.5-3.2-5.2-4.9c-1.7-1.7-3.3-3.6-4.9-5.5
			c-4.8-6-9.5-12-12.9-17.3c-3.4-5.3-5.5-9.9-6.9-14.4c-1.5-4.6-2.4-9.1-3-14.3c-0.6-5.1-1-10.9-0.9-15.8c0.1-4.9,0.5-9,0.9-11
			c0.4-2,0.6-1.9,2.1-1c1.5,0.9,4.3,2.5,7.3,5c3.1,2.6,6.5,6.1,9.6,9.9c3,3.8,5.7,7.8,7.6,11.3c1.9,3.4,3.1,6.3,4.2,9.1
			c0.2-1.9,0.3-3.8,0.4-5.5c0.1-1.7,0.3-3-0.6-6.3c-0.9-3.3-2.7-8.4-4.5-13.5c-2.9-10.2-5.8-20.5-6.9-29.1c-1.1-8.6-0.3-15.5,1-21.7
			c1.3-6.2,3.3-11.7,5.5-16.1c2.3-4.4,4.9-7.6,7.5-10.9c1.8,3.4,3.6,6.9,5.2,10.8c1.6,4,2.9,8.5,4.3,13.2c1.4,4.7,2.9,9.7,3.7,13.2
			c0.8,3.6,1,5.7,1.2,7.9c0.8-1.3,1.6-2.6,2.2-3.8c0.6-1.2,0.9-2.2,0.9-3.6c0-1.4-0.3-3-0.3-6.5c0-3.5,0.2-8.9,0.9-14.3
			c0.7-5.4,1.8-10.9,3.8-16.1c2-5.2,4.8-10.3,7.7-14.8c2.9-4.5,5.9-8.6,9.5-12.5c3.6-3.9,7.8-7.7,11-10.3c3.2-2.6,5.4-4,7.5-5.4
			c0.6,1.1,1.2,2.2,1.7,4.6c0.6,2.4,1.2,6.2,1,10c-0.1,3.8-0.9,7.7-2.2,12.1c-1.2,4.4-2.9,9.4-3.8,12c-0.9,2.7-1.2,3-1.3,3.2
			c-0.1,0.2-0.1,0.2-0.1,0.2c1.5-0.6,3-1.3,4.4-2.7c1.4-1.4,2.7-3.6,4.4-7c1.7-3.5,3.8-8.3,6.5-13c2.7-4.7,6.1-9.4,12.2-14.9
			c6.1-5.4,14.9-11.6,21.6-15.3c6.7-3.7,11.2-5,14.9-5.9c3.6-0.9,6.3-1.5,7.8-1.4c1.4,0,1.6,0.6,0.8,3.7c-0.8,3.1-2.5,8.8-5.4,14.2
			c-2.9,5.4-7,10.4-11,15c-4,4.5-8,8.4-12,11.4c-4,2.9-8.1,4.8-12.5,6.6c-4.3,1.8-8.9,3.6-12.6,4.8c-3.7,1.2-6.5,2-8.9,3.1
			c-2.4,1.1-4.3,2.4-6.3,4c-2,1.5-3.9,3.3-4.9,4.3c-1,1-1.2,1.3-2,2.3c-0.8,1-2.1,2.6-4.1,5.1c-2,2.5-4.6,5.8-7,9
			c-2.4,3.2-4.7,6.3-7,8.8c-2.3,2.5-4.7,4.2-6,5.4c-1.4,1.2-1.7,1.7-2.6,3.4c-0.9,1.7-2.3,4.5-3.5,6.7c-1.2,2.3-2.2,4.1-3,5.4
			c-0.7,1.3-1.2,2.2-1.7,3c-0.1,2.5-0.3,5-0.6,7.2c-0.4,2.3-1,4.4-1.6,6.2s-1.2,3.4-1.8,5c1.7-1.2,3.3-2.5,4.8-3.4
			c1.5-1,2.7-1.8,3.9-3.5c1.2-1.8,2.2-4.6,4.1-8.7c1.9-4.2,4.7-9.7,8.4-14.6c3.7-4.9,8.2-9.2,13.3-13.1c5.1-3.9,10.7-7.2,16.4-10.2
			c5.8-2.9,11.7-5.4,16.5-6.9c4.9-1.5,8.6-1.9,12.4-2.3c-0.1,1.5-0.2,3-1.8,6.6c-1.6,3.6-4.6,9.3-8.6,15c-4,5.7-9.1,11.5-13.2,16.1
			c-4.1,4.6-7.3,8-11.5,11c-4.2,3-9.3,5.6-14.2,7.4c-4.9,1.9-9.5,3-12.7,3.9c-3.2,0.9-5.1,1.5-7.3,2.8c-2.2,1.2-4.8,3-6.8,4.5
			c-2,1.4-3.3,2.4-4.7,3.9c-1.3,1.4-2.6,3.2-3.8,4.9c-1.1,1.7-2,3.3-2.5,4.7c-0.5,1.4-0.5,2.7-0.7,5c-0.2,2.2-0.6,5.4-0.7,8.9
			c-0.1,3.6,0.1,7.6,0.4,11.6c0.8,3.1,1.6,6.2,2,9.1c0.4,2.9,0.6,5.7,0.7,8.2c0.1,2.5,0.3,4.7,0.2,7c-0.1,2.3-0.3,4.8-0.2,6.9
			c0.2,2.1,0.8,3.7,1.5,5.7c0.7,2,1.5,4.4,2.1,6.6c0.6,2.2,1,4.2,1.4,6.3c1.5,1.8,3,3.6,4.5,5.6c1.5,2.1,3,4.5,4.4,6.8
			c1.5,2.3,2.9,4.4,4.4,6.6c0.2-2.4,0.4-4.8,0.5-6.8c0.1-2,0.2-3.5-0.4-5.6c-0.7-2.2-2-5-3.7-11c-1.6-6.1-3.4-15.4-4-24.1
			c-0.6-8.7,0-16.8,1.6-24c1.6-7.2,4.1-13.5,6.7-18.8c2.6-5.3,5.1-9.6,6.6-11.8c1.5-2.2,1.9-2.2,2.3-1.5c0.5,0.7,1,2,2.5,6.1
			c1.5,4.1,4,11.1,5.7,18.4c1.7,7.2,2.5,14.7,2.4,21.5c0,6.8-0.9,12.9-2.4,18.2c-1.5,5.3-3.6,9.9-5.6,13.7c-2,3.8-4,6.7-5.2,9.6
			c-1.2,2.9-1.7,5.7-2.2,9.3c-0.5,3.6-0.9,8.1-1.4,12.5c0.4,1.2,0.9,2.4,1.4,4.2c0.6,1.8,1.4,4.2,2.1,6.3c0.8,2.1,1.5,3.8,2.8,5.7
			c1.3,1.9,3.1,4,4.9,5.6c1.9,1.7,3.8,2.9,5.8,4.2c2.2,1.1,4.3,2.3,6.5,3.4c4.1,2.1,8.1,4.2,11.2,6.6c3.1,2.3,5.2,4.9,7.7,7.6
			c2.5,2.7,5.4,5.5,7.9,7.5c2.5,1.9,4.6,3,6.8,4c2.2,1,4.5,2,6.8,3c3.4,0.3,6.8,0.7,9.8,1.2c3,0.5,5.6,1.2,8.3,2
			c-1.4-1.9-2.8-3.8-4.4-5.1c-1.6-1.3-3.4-2-8.2-5c-4.8-2.9-12.6-8.1-19.5-13.8c-6.9-5.7-12.9-11.8-17.5-18.6
			c-4.6-6.7-7.7-14.1-10-20.2c-2.3-6.2-3.7-11.2-5-16.2c0.6,0.1,1.2,0.3,2.7,0.7c1.6,0.4,4.1,1.1,8.4,3c4.3,1.9,10.2,4.9,15.5,8.4
			c5.3,3.5,9.8,7.4,13.7,11.8c3.9,4.4,7.1,9.3,10,14.4c2.9,5.1,5.5,10.3,7.5,15.2s3.3,9.5,4.6,12.9c1.2,3.4,2.4,5.6,3.6,7.7
			c1.3,2.1,2.6,4,4,6c0,0,0,0,0.3,0.1c0.3,0.1,0.8,0.3,2.6,1c1.8,0.7,4.8,1.8,7.5,2.8c2.6,1,4.8,2,6.9,2.9c2.9,0.2,5.8,0.4,8.9,1.2
			c3.1,0.7,6.2,1.9,8.8,3c2.6,1.1,4.5,2.1,6.5,3.1c0.4,0.2,0.8,0.5,0.5,1.1c-0.2,0.6-1.1,1.7-1.6,2.7c-0.5,1-0.7,2.1-0.9,3.2
			c-0.2,0.2-0.4,0.4-0.8,0c-0.3-0.4-0.8-1.5-2-2.8C217.7,381.8,215.7,380.3,213.7,378.9L213.7,378.9z"/>
		<path class="st3" d="M203.1,370.4c-0.9,0-1.8,0-2.4-0.1c-0.7-0.1-1.2-0.2-1.6-0.3c-0.4-0.9-0.8-1.9-1.2-2.9c-0.5-1-1-2-1.9-3
			c-0.9-0.9-2.2-1.8-3.5-2.5c-1.4-0.7-2.8-1.1-4.1-1.6c-1.3-0.5-2.5-1.2-3.5-2c-1-0.9-1.8-1.9-2.3-3.4c-0.5-1.5-0.8-3.4-0.9-5
			c-0.1-1.6,0-2.8,0.1-3.8c0.2-0.9,0.4-1.6,0.9-1.9c0.5-0.3,1.3-0.4,2.4-0.2c1.2,0.2,2.8,0.7,4.3,1.5c1.5,0.8,2.8,1.8,3.8,3.1
			c1,1.3,1.7,2.9,2.1,4.4c0.4,1.5,0.5,3.1,0.9,4.5c0.4,1.4,1,2.6,1.9,4.1c0.9,1.5,2.1,3.3,2.8,4.6c0.8,1.4,1.2,2.4,1.5,3.1
			C202.8,369.7,202.9,370.1,203.1,370.4L203.1,370.4z"/>
		<path class="st3" d="M130.8,359.2c-0.6,0-1.3,0-2.2,0c-0.9,0-2.1-0.1-3.3-0.2c-0.7,0.4-1.4,0.8-2.1,1.2c-0.7,0.4-1.5,0.7-2.3,0.9
			c-0.8,0.2-1.5,0.3-2.4,0.2c-0.8-0.1-1.7-0.5-3.1-1.1c-1.3-0.6-3.1-1.5-5.1-1.8c-2-0.3-4.1,0.1-5.8,0.9c-1.7,0.8-2.9,2-3.6,3
			c-0.7,1-0.9,1.8-0.9,2.4c0,0.6,0.2,1.1,1.2,1.9c1,0.8,2.9,1.8,4.7,2.4c1.8,0.6,3.5,0.9,5.1,0.7c1.7-0.2,3.4-1,4.6-1.7
			c1.2-0.7,1.9-1.5,3.1-2.1c1.2-0.6,2.8-1.1,4.2-1.6c1.5-0.6,2.8-1.2,4.1-2.1C128.2,361.3,129.5,360.2,130.8,359.2L130.8,359.2z"/>
		<path class="st3" d="M118.3,330.8c-1.2-0.8-2.4-1.5-3.4-2.1c-1.1-0.6-2.1-1.1-3.1-1.5c-0.1-0.7-0.2-1.4-0.3-2.3
			c-0.1-0.9-0.1-1.9-0.2-2.8c-0.1-0.9-0.4-1.8-0.8-2.7c-0.5-0.9-1.1-1.7-2.3-2.9c-1.1-1.2-2.7-2.8-3.8-4.8c-1.1-2.1-1.6-4.6-1.6-6.9
			c0-2.2,0.7-4.1,1.3-5.4c0.6-1.2,1.3-1.8,1.9-2.1c0.6-0.3,1.1-0.3,2.3,0.5c1.1,0.8,2.9,2.4,4.2,4.1c1.3,1.7,2.3,3.4,2.8,5.4
			c0.5,2,0.5,4.2,0.3,5.8c-0.2,1.7-0.6,2.8-0.5,4.3c0.1,1.5,0.6,3.4,1,4.9c0.4,1.6,0.6,2.8,1,4.2
			C117.4,327.8,117.9,329.3,118.3,330.8L118.3,330.8z"/>
		<path class="st3" d="M83.1,315c-0.6-0.2-1.2-0.5-2-0.9c-0.8-0.4-1.9-0.9-3-1.5c-0.8,0.1-1.6,0.3-2.4,0.3c-0.8,0.1-1.7,0.1-2.5,0
			c-0.8-0.1-1.6-0.3-2.3-0.8c-0.7-0.4-1.4-1.1-2.5-2.2c-1-1.1-2.3-2.7-4.1-3.7c-1.7-1-3.9-1.5-5.8-1.4c-1.9,0.1-3.5,0.8-4.6,1.5
			c-1.1,0.7-1.6,1.4-1.8,2c-0.3,0.6-0.3,1.2,0.4,2.3c0.7,1.1,2,2.9,3.4,4.2c1.4,1.3,2.9,2.2,4.6,2.6c1.7,0.4,3.6,0.3,5,0.1
			c1.4-0.3,2.4-0.7,3.7-0.8c1.3-0.1,3,0.1,4.6,0.1c1.6,0,3.1-0.1,4.6-0.4C79.9,316,81.5,315.5,83.1,315L83.1,315z"/>
		<path class="st3" d="M58,254.9c-0.4-0.4-0.9-0.9-1.5-1.5c-0.6-0.7-1.3-1.6-2.1-2.5c-0.8-0.1-1.6-0.3-2.3-0.5
			c-0.8-0.2-1.5-0.5-2.2-0.9c-0.7-0.4-1.3-0.8-1.8-1.5c-0.5-0.7-0.9-1.6-1.4-3c-0.5-1.4-1.1-3.4-2.2-5c-1.2-1.6-3-2.8-4.7-3.3
			c-1.8-0.5-3.5-0.4-4.7-0.1c-1.2,0.3-1.9,0.8-2.4,1.3c-0.5,0.5-0.7,1-0.5,2.3c0.2,1.3,0.7,3.4,1.5,5.2c0.8,1.7,1.7,3.1,3.1,4.1
			c1.4,1,3.1,1.6,4.5,1.8c1.4,0.2,2.4,0.2,3.7,0.5c1.2,0.3,2.7,1.1,4.1,1.7c1.4,0.6,2.8,1,4.3,1.2C54.7,254.8,56.4,254.8,58,254.9
			L58,254.9z"/>
		<path class="st3" d="M71.2,225.7c-0.1-0.9-0.3-1.9-0.4-2.8c-0.1-0.9-0.2-1.8-0.4-2.7c0.5-0.5,1-1,1.4-1.6c0.5-0.5,0.9-1.1,1.2-1.8
			c0.3-0.7,0.6-1.7,0.5-2.8c0-1.1-0.4-2.5-0.2-4.5c0.2-1.9,0.8-4.5,1.9-6.5c1.2-2,2.9-3.6,4.5-4.6c1.6-1,3.2-1.4,4.7-1.4
			c1.5,0,3.1,0.2,3.6,1.9c0.6,1.7,0.3,4.8-0.2,7.1c-0.4,2.3-1,3.9-2,5.4c-1,1.5-2.5,3-3.7,3.7c-1.3,0.8-2.3,0.9-3.3,1.6
			c-1,0.8-2,2.2-2.8,3.4c-0.9,1.2-1.6,2.1-2.4,3C73,224,72.1,224.8,71.2,225.7L71.2,225.7z"/>
		<path class="st3" d="M59.4,190.3c-0.2-0.6-0.5-1.2-0.8-2.1c-0.3-0.9-0.6-2-1-3.2c-0.7-0.5-1.3-1-1.9-1.5c-0.6-0.5-1.2-1.2-1.7-1.8
			c-0.5-0.7-0.9-1.3-1.1-2.2c-0.2-0.8-0.2-1.8-0.1-3.3c0.1-1.5,0.3-3.6-0.2-5.6c-0.5-2-1.7-3.9-3.1-5.2c-1.4-1.3-3-2-4.3-2.3
			c-1.2-0.3-2.1-0.2-2.7,0.1c-0.6,0.2-1,0.6-1.4,1.9c-0.3,1.3-0.6,3.5-0.6,5.4c0,1.9,0.4,3.6,1.3,5.1c0.9,1.5,2.2,2.8,3.4,3.7
			c1.2,0.8,2.1,1.2,3.1,2.1c1,0.9,2,2.2,3.1,3.4c1.1,1.2,2.2,2.1,3.5,3C56.5,188.7,57.9,189.5,59.4,190.3L59.4,190.3z"/>
		<path class="st3" d="M83.5,133.7c0-0.7,0-1.3,0.1-2.2c0.1-0.9,0.2-2.1,0.4-3.3c-0.4-0.7-0.8-1.5-1.1-2.3c-0.3-0.8-0.6-1.6-0.8-2.4
			c-0.2-0.8-0.2-1.6-0.1-2.5c0.2-0.8,0.5-1.7,1.2-3.1c0.7-1.3,1.7-3.1,2.1-5.1c0.3-2,0-4.3-0.7-6.1c-0.8-1.8-2-3.2-3-4.1
			c-1-0.8-1.8-1.1-2.4-1.2c-0.6-0.1-1.2,0.1-2,1c-0.8,1-1.9,2.8-2.7,4.6c-0.7,1.8-1.1,3.5-0.9,5.2c0.2,1.8,0.9,3.6,1.6,4.9
			s1.4,2.1,2,3.4c0.6,1.3,1,3,1.5,4.5c0.5,1.6,1.1,3,2,4.4C81.5,130.9,82.5,132.3,83.5,133.7L83.5,133.7z"/>
		<path class="st3" d="M114.8,124.5c0.7-1,1.5-2,2-2.9c0.5-0.8,0.9-1.4,1.3-2.1c1.3,0,2.7-0.1,3.8-0.1c1.1,0,1.9,0,2.7-0.3
			c0.8-0.3,1.6-0.9,2.3-1.8c0.7-0.9,1.4-2.1,2.7-3.4c1.4-1.3,3.4-2.5,5.6-3.1c2.1-0.5,4.4-0.3,6.3,0.2s3.5,1.4,4.5,2.3
			c1,0.9,1.4,1.8,1,3.2c-0.4,1.4-1.7,3.2-3.4,4.7c-1.7,1.6-3.8,2.9-5.9,3.5c-2.1,0.6-4,0.5-5.4,0.1c-1.4-0.4-2.2-1.2-3.4-1.4
			c-1.2-0.2-2.8,0-4.2,0.2c-1.4,0.2-2.5,0.2-4.1,0.4C118.9,124.2,116.9,124.3,114.8,124.5L114.8,124.5z"/>
		<path class="st4" d="M92.2,177.9c17.9-24.8,32.9-34.9,57.7-50.4l2.6-1.6c-5.9,4.1-11.8,8-17.7,12C114.4,152,108,158.1,92.2,177.9
			L92.2,177.9z M37.2,186.1c13.3,23.1,22.7,41.9,30.2,68.2c-5.4-16-9.2-26.7-16.5-41.6C46.5,203.8,41.7,195.1,37.2,186.1L37.2,186.1
			z M99,207.4c-0.4,21.3-2,46.3-4.6,67.6c0.9-17.2,2.7-34.7,3.7-51.9C98.3,217.8,98.6,212.6,99,207.4L99,207.4z M133.8,101.4
			c17.4-20.9,31-32.7,53.6-46.3c-4.8,3.4-9.7,6.5-14.4,9.9C156,77,148,86.5,133.8,101.4L133.8,101.4z M66.8,120.6
			c2,23.5,2.3,50.5,1,74.1c-0.1-17.3,0.4-33.9-0.2-51.3C67.4,135.8,67,128.2,66.8,120.6L66.8,120.6z M121.3,75.5
			c-2.4,3.8-4.8,7.6-7.2,11.4c-13.1,20.9-16.3,32.5-24.5,55.4C97.5,114.7,105,98.4,121.3,75.5L121.3,75.5z M40.4,261.3
			c20.6,13.9,33,25.8,48.1,46.3c-12.7-14.8-19.4-23.9-34.9-36.2C49.3,268,44.8,264.8,40.4,261.3L40.4,261.3z M119.6,293.4
			c17.5,14,24.9,21.8,38.2,40.4c3.5,4.9,7,9.7,10.5,14.5c-5-6.3-9.5-12.5-14.3-18.9C141.8,313,134.2,306.5,119.6,293.4L119.6,293.4z
			 M68.8,327.6c24.2,5.2,44.3,12.8,66.7,24.1c-17-7.2-30.5-13.7-48.4-19C81,330.9,74.9,329.4,68.8,327.6L68.8,327.6z M117.8,374.3
			c25.6-4,46.5-4.6,72.2-1.3c-16.7-0.9-29.6-2.2-46.6-1.1C134.8,372.5,126.4,373.6,117.8,374.3L117.8,374.3z"/>
		<path class="st3" d="M215.9,378.9c2.5-1.1,5-2.2,7.5-2.8c2.5-0.6,5-0.7,7.5,0c2.5,0.7,5.1,2.3,8.9,4.4c3.8,2.1,8.9,4.8,16.2,6.6
			c7.3,1.7,16.8,2.5,25.3,2.1c8.5-0.4,15.9-2,22.6-4.4c6.7-2.5,12.5-5.8,15.4-7.5c2.9-1.7,2.8-1.9,1.8-2.6c-1-0.7-2.9-2.1-7.3-4.1
			c-4.3-2-11.1-4.7-16.5-6.5c-5.5-1.7-9.6-2.5-12.4-2.9c-2.8-0.4-4.3-0.6-5.8-0.7c2.3-1,4.6-2,7-2.4c2.4-0.3,4.8,0,9.1,0.1
			c4.3,0.1,10.4-0.2,17.6-1.2c7.3-1.1,15.7-3,21.8-4.9c6.1-1.9,10-3.8,14.1-6.4c4.1-2.6,8.5-5.8,12.3-9.2c3.8-3.4,7.1-7,9-9.2
			c1.9-2.3,2.5-3.2,2.7-4c0.2-0.8,0.1-1.3-1.4-1.8c-1.4-0.5-4.1-0.8-8.6-1.1c-4.5-0.2-10.8-0.3-15.8,0.1c-5,0.3-8.6,1.1-11.4,1.8
			c-2.8,0.7-4.9,1.5-7,2.3c0.9-1.2,1.7-2.5,2.6-3.7c0.9-1.2,1.8-2.5,4.7-3.9c2.9-1.4,7.7-2.9,12.5-4.4c6.9-3.9,13.8-7.7,19.2-11.6
			c5.4-3.9,9.4-7.8,13-12.5c3.7-4.7,7.1-10.2,9.9-14.8c2.8-4.6,4.9-8.5,6.6-12.1c1.7-3.6,2.9-6.9,4.1-10.2c-3,0.3-6,0.6-9.6,1.4
			c-3.7,0.8-8,2.1-12.5,4.2c-4.5,2.1-9.2,5-12.7,7.6c-3.5,2.6-5.8,4.9-8,7.2c0.2-1.4,0.5-2.8,1.2-4.5c0.7-1.7,1.9-3.6,3.5-5.3
			c1.6-1.7,3.5-3.2,5.2-4.9c1.7-1.7,3.3-3.6,4.9-5.5c4.8-6,9.5-12,12.9-17.3c3.4-5.3,5.5-9.9,6.9-14.4c1.5-4.6,2.4-9.1,3-14.3
			c0.6-5.1,1-10.9,0.9-15.8c-0.1-4.9-0.5-9-0.9-11c-0.4-2-0.6-1.9-2.1-1c-1.5,0.9-4.3,2.5-7.3,5c-3.1,2.6-6.5,6.1-9.6,9.9
			c-3,3.8-5.7,7.8-7.6,11.3c-1.9,3.4-3.1,6.3-4.2,9.1c-0.2-1.9-0.3-3.8-0.4-5.5c-0.1-1.7-0.3-3,0.6-6.3c0.9-3.3,2.7-8.4,4.5-13.5
			c2.9-10.2,5.8-20.5,6.9-29.1c1.1-8.6,0.3-15.5-1-21.7c-1.3-6.2-3.3-11.7-5.5-16.1c-2.3-4.4-4.9-7.6-7.5-10.9
			c-1.8,3.4-3.6,6.9-5.2,10.8c-1.6,4-2.9,8.5-4.3,13.2c-1.4,4.7-2.9,9.7-3.7,13.2c-0.8,3.6-1,5.7-1.2,7.9c-0.8-1.3-1.6-2.6-2.2-3.8
			c-0.6-1.2-0.9-2.2-0.9-3.6c0-1.4,0.3-3,0.3-6.5c0-3.5-0.2-8.9-0.9-14.3c-0.7-5.4-1.8-10.9-3.8-16.1c-2-5.2-4.8-10.3-7.7-14.8
			c-2.9-4.5-5.9-8.6-9.5-12.5c-3.6-3.9-7.8-7.7-11-10.3s-5.4-4-7.5-5.4c-0.6,1.1-1.2,2.2-1.7,4.6c-0.6,2.4-1.2,6.2-1,10
			c0.1,3.8,0.9,7.7,2.2,12.1c1.2,4.4,2.9,9.4,3.8,12c0.9,2.7,1.2,3,1.3,3.2c0.1,0.2,0.1,0.2,0.1,0.2c-1.5-0.6-3-1.3-4.4-2.7
			c-1.4-1.4-2.7-3.6-4.4-7c-1.7-3.5-3.8-8.3-6.5-13c-2.7-4.7-6.1-9.4-12.2-14.9c-6.1-5.4-14.9-11.6-21.6-15.3
			c-6.7-3.7-11.2-5-14.9-5.9c-3.6-0.9-6.3-1.5-7.8-1.4c-1.4,0-1.6,0.6-0.8,3.7c0.8,3.1,2.5,8.8,5.4,14.2c2.9,5.4,7,10.4,11,15
			c4,4.5,8,8.4,12,11.4c4,2.9,8.1,4.8,12.5,6.6c4.3,1.8,8.9,3.6,12.6,4.8c3.7,1.2,6.5,2,8.9,3.1c2.4,1.1,4.3,2.4,6.3,4
			c2,1.5,3.9,3.3,4.9,4.3c1,1,1.2,1.3,2,2.3c0.8,1,2.1,2.6,4.1,5.1c2,2.5,4.6,5.8,7,9c2.4,3.2,4.7,6.3,7,8.8c2.3,2.5,4.7,4.2,6,5.4
			c1.4,1.2,1.7,1.7,2.6,3.4c0.9,1.7,2.3,4.5,3.5,6.7c1.2,2.3,2.2,4.1,3,5.4c0.7,1.3,1.2,2.2,1.7,3c0.1,2.5,0.3,5,0.6,7.2
			c0.4,2.3,1,4.4,1.6,6.2c0.6,1.8,1.2,3.4,1.8,5c-1.7-1.2-3.3-2.5-4.8-3.4c-1.5-1-2.7-1.8-3.9-3.5c-1.2-1.8-2.2-4.6-4.1-8.7
			c-1.9-4.2-4.7-9.7-8.4-14.6c-3.7-4.9-8.2-9.2-13.3-13.1c-5.1-3.9-10.7-7.2-16.4-10.2c-5.8-2.9-11.7-5.4-16.5-6.9
			c-4.9-1.5-8.6-1.9-12.4-2.3c0.1,1.5,0.2,3,1.8,6.6c1.6,3.6,4.6,9.3,8.6,15c4,5.7,9.1,11.5,13.2,16.1c4.1,4.6,7.3,8,11.5,11
			c4.2,3,9.3,5.6,14.2,7.4c4.9,1.9,9.5,3,12.7,3.9c3.2,0.9,5.1,1.5,7.3,2.8c2.2,1.2,4.8,3,6.8,4.5c2,1.4,3.3,2.4,4.7,3.9
			c1.3,1.4,2.6,3.2,3.8,4.9c1.1,1.7,2,3.3,2.5,4.7c0.5,1.4,0.5,2.7,0.7,5c0.2,2.2,0.6,5.4,0.7,8.9s-0.1,7.6-0.4,11.6
			c-0.8,3.1-1.6,6.2-2,9.1c-0.4,2.9-0.6,5.7-0.7,8.2c-0.1,2.5-0.3,4.7-0.2,7c0.1,2.3,0.3,4.8,0.2,6.9c-0.2,2.1-0.8,3.7-1.5,5.7
			c-0.7,2-1.5,4.4-2.1,6.6c-0.6,2.2-1,4.2-1.4,6.3c-1.5,1.8-3,3.6-4.5,5.6c-1.5,2.1-3,4.5-4.4,6.8c-1.5,2.3-2.9,4.4-4.4,6.6
			c-0.2-2.4-0.4-4.8-0.5-6.8c-0.1-2-0.2-3.5,0.4-5.6c0.7-2.2,2-5,3.7-11c1.6-6.1,3.4-15.4,4-24.1c0.6-8.7,0-16.8-1.6-24
			c-1.6-7.2-4.1-13.5-6.7-18.8s-5.1-9.6-6.6-11.8c-1.5-2.2-1.9-2.2-2.3-1.5c-0.5,0.7-1,2-2.5,6.1c-1.5,4.1-4,11.1-5.7,18.4
			c-1.7,7.2-2.5,14.7-2.4,21.5c0,6.8,0.9,12.9,2.4,18.2c1.5,5.3,3.6,9.9,5.6,13.7c2,3.8,4,6.7,5.2,9.6c1.2,2.9,1.7,5.7,2.2,9.3
			c0.5,3.6,0.9,8.1,1.4,12.5c-0.4,1.2-0.9,2.4-1.4,4.2c-0.6,1.8-1.4,4.2-2.1,6.3c-0.8,2.1-1.5,3.8-2.8,5.7c-1.3,1.9-3.1,4-4.9,5.6
			c-1.9,1.7-3.8,2.9-5.8,4.2c-2.2,1.1-4.3,2.3-6.5,3.4c-4.1,2.1-8.1,4.2-11.2,6.6c-3.1,2.3-5.2,4.9-7.7,7.6
			c-2.5,2.7-5.4,5.5-7.9,7.5c-2.5,1.9-4.6,3-6.8,4c-2.2,1-4.5,2-6.8,3c-3.4,0.3-6.8,0.7-9.8,1.2c-3,0.5-5.6,1.2-8.3,2
			c1.4-1.9,2.8-3.8,4.4-5.1c1.6-1.3,3.4-2,8.2-5c4.8-2.9,12.6-8.1,19.5-13.8c6.9-5.7,12.9-11.8,17.5-18.6c4.6-6.7,7.7-14.1,10-20.2
			c2.3-6.2,3.7-11.2,5-16.2c-0.6,0.1-1.2,0.3-2.7,0.7c-1.6,0.4-4.1,1.1-8.4,3c-4.3,1.9-10.2,4.9-15.5,8.4
			c-5.3,3.5-9.8,7.4-13.7,11.8c-3.9,4.4-7.1,9.3-10,14.4c-2.9,5.1-5.5,10.3-7.5,15.2s-3.3,9.5-4.6,12.9c-1.2,3.4-2.4,5.6-3.6,7.7
			c-1.3,2.1-2.6,4-4,6c0,0,0,0-0.3,0.1c-0.3,0.1-0.8,0.3-2.6,1c-1.8,0.7-4.8,1.8-7.5,2.8c-2.6,1-4.8,2-6.9,2.9
			c-2.9,0.2-5.8,0.4-8.9,1.2c-3.1,0.7-6.2,1.9-8.8,3c-2.6,1.1-4.5,2.1-6.5,3.1c-0.4,0.2-0.8,0.5-0.5,1.1c0.2,0.6,1.1,1.7,1.6,2.7
			c0.5,1,0.7,2.1,0.9,3.2c0.2,0.2,0.4,0.4,0.8,0c0.3-0.4,0.8-1.5,2-2.8C211.9,381.8,213.9,380.3,215.9,378.9L215.9,378.9z"/>
		<path class="st3" d="M226.5,370.4c0.9,0,1.8,0,2.4-0.1c0.7-0.1,1.2-0.2,1.6-0.3c0.4-0.9,0.8-1.9,1.2-2.9c0.5-1,1-2,1.9-3
			s2.2-1.8,3.5-2.5c1.4-0.7,2.8-1.1,4.1-1.6c1.3-0.5,2.5-1.2,3.5-2c1-0.9,1.8-1.9,2.3-3.4c0.5-1.5,0.8-3.4,0.9-5
			c0.1-1.6,0-2.8-0.1-3.8c-0.2-0.9-0.4-1.6-0.9-1.9c-0.5-0.3-1.3-0.4-2.4-0.2c-1.2,0.2-2.8,0.7-4.3,1.5c-1.5,0.8-2.8,1.8-3.8,3.1
			c-1,1.3-1.7,2.9-2.1,4.4c-0.4,1.5-0.5,3.1-0.9,4.5c-0.4,1.4-1,2.6-1.9,4.1c-0.9,1.5-2.1,3.3-2.8,4.6c-0.8,1.4-1.2,2.4-1.5,3.1
			C226.8,369.7,226.7,370.1,226.5,370.4L226.5,370.4z"/>
		<path class="st3" d="M298.8,359.2c0.6,0,1.3,0,2.2,0c0.9,0,2.1-0.1,3.3-0.2c0.7,0.4,1.4,0.8,2.1,1.2c0.7,0.4,1.5,0.7,2.3,0.9
			c0.8,0.2,1.5,0.3,2.4,0.2c0.8-0.1,1.7-0.5,3.1-1.1c1.3-0.6,3.1-1.5,5.1-1.8c2-0.3,4.1,0.1,5.8,0.9c1.7,0.8,2.9,2,3.6,3
			c0.7,1,0.9,1.8,0.9,2.4c0,0.6-0.2,1.1-1.2,1.9c-1,0.8-2.9,1.8-4.7,2.4c-1.8,0.6-3.5,0.9-5.1,0.7c-1.7-0.2-3.4-1-4.6-1.7
			c-1.2-0.7-1.9-1.5-3.1-2.1c-1.2-0.6-2.8-1.1-4.2-1.6c-1.5-0.6-2.8-1.2-4.1-2.1C301.4,361.3,300.1,360.2,298.8,359.2L298.8,359.2z"
			/>
		<path class="st3" d="M311.3,330.8c1.2-0.8,2.4-1.5,3.4-2.1c1.1-0.6,2.1-1.1,3.1-1.5c0.1-0.7,0.2-1.4,0.3-2.3
			c0.1-0.9,0.1-1.9,0.2-2.8c0.1-0.9,0.4-1.8,0.8-2.7c0.5-0.9,1.1-1.7,2.3-2.9c1.1-1.2,2.7-2.8,3.8-4.8c1.1-2.1,1.6-4.6,1.6-6.9
			c0-2.2-0.7-4.1-1.3-5.4c-0.6-1.2-1.3-1.8-1.9-2.1c-0.6-0.3-1.1-0.3-2.3,0.5c-1.1,0.8-2.9,2.4-4.2,4.1c-1.3,1.7-2.3,3.4-2.8,5.4
			s-0.5,4.2-0.3,5.8c0.2,1.7,0.6,2.8,0.5,4.3c-0.1,1.5-0.6,3.4-1,4.9c-0.4,1.6-0.6,2.8-1,4.2C312.2,327.8,311.7,329.3,311.3,330.8
			L311.3,330.8z"/>
		<path class="st3" d="M346.5,315c0.6-0.2,1.2-0.5,2-0.9c0.8-0.4,1.9-0.9,3-1.5c0.8,0.1,1.6,0.3,2.4,0.3c0.8,0.1,1.7,0.1,2.5,0
			c0.8-0.1,1.6-0.3,2.3-0.8c0.7-0.4,1.4-1.1,2.5-2.2c1-1.1,2.3-2.7,4.1-3.7c1.7-1,3.9-1.5,5.8-1.4c1.9,0.1,3.5,0.8,4.6,1.5
			c1.1,0.7,1.6,1.4,1.8,2c0.3,0.6,0.3,1.2-0.4,2.3c-0.7,1.1-2,2.9-3.4,4.2c-1.4,1.3-2.9,2.2-4.6,2.6c-1.7,0.4-3.6,0.3-5,0.1
			c-1.4-0.3-2.4-0.7-3.7-0.8c-1.3-0.1-3,0.1-4.6,0.1c-1.6,0-3.1-0.1-4.6-0.4C349.7,316,348.1,315.5,346.5,315L346.5,315z"/>
		<path class="st3" d="M371.6,254.9c0.4-0.4,0.9-0.9,1.5-1.5c0.6-0.7,1.3-1.6,2.1-2.5c0.8-0.1,1.6-0.3,2.3-0.5
			c0.8-0.2,1.5-0.5,2.2-0.9c0.7-0.4,1.3-0.8,1.8-1.5c0.5-0.7,0.9-1.6,1.4-3c0.5-1.4,1.1-3.4,2.2-5c1.2-1.6,3-2.8,4.7-3.3
			c1.8-0.5,3.5-0.4,4.7-0.1c1.2,0.3,1.9,0.8,2.4,1.3c0.5,0.5,0.7,1,0.5,2.3c-0.2,1.3-0.7,3.4-1.5,5.2c-0.8,1.7-1.7,3.1-3.1,4.1
			c-1.4,1-3.1,1.6-4.5,1.8c-1.4,0.2-2.4,0.2-3.7,0.5c-1.2,0.3-2.7,1.1-4.1,1.7c-1.4,0.6-2.8,1-4.3,1.2
			C374.9,254.8,373.2,254.8,371.6,254.9L371.6,254.9z"/>
		<path class="st3" d="M358.4,225.7c0.1-0.9,0.3-1.9,0.4-2.8c0.1-0.9,0.2-1.8,0.4-2.7c-0.5-0.5-1-1-1.4-1.6
			c-0.5-0.5-0.9-1.1-1.2-1.8c-0.3-0.7-0.6-1.7-0.5-2.8c0-1.1,0.4-2.5,0.2-4.5c-0.2-1.9-0.8-4.5-1.9-6.5c-1.2-2-2.9-3.6-4.5-4.6
			c-1.6-1-3.2-1.4-4.7-1.4c-1.5,0-3.1,0.2-3.6,1.9c-0.6,1.7-0.3,4.8,0.2,7.1c0.4,2.3,1,3.9,2,5.4c1,1.5,2.5,3,3.7,3.7
			c1.3,0.8,2.3,0.9,3.3,1.6c1,0.8,2,2.2,2.8,3.4c0.9,1.2,1.6,2.1,2.4,3C356.6,224,357.5,224.8,358.4,225.7L358.4,225.7z"/>
		<path class="st3" d="M370.2,190.3c0.2-0.6,0.5-1.2,0.8-2.1c0.3-0.9,0.6-2,1-3.2c0.7-0.5,1.3-1,1.9-1.5c0.6-0.5,1.2-1.2,1.7-1.8
			c0.5-0.7,0.9-1.3,1.1-2.2c0.2-0.8,0.2-1.8,0.1-3.3c-0.1-1.5-0.3-3.6,0.2-5.6c0.5-2,1.7-3.9,3.1-5.2c1.4-1.3,3-2,4.3-2.3
			c1.2-0.3,2.1-0.2,2.7,0.1c0.6,0.2,1,0.6,1.4,1.9c0.3,1.3,0.6,3.5,0.6,5.4c0,1.9-0.4,3.6-1.3,5.1c-0.9,1.5-2.2,2.8-3.4,3.7
			c-1.2,0.8-2.1,1.2-3.1,2.1c-1,0.9-2,2.2-3.1,3.4c-1.1,1.2-2.2,2.1-3.5,3S371.7,189.5,370.2,190.3L370.2,190.3z"/>
		<path class="st3" d="M346.1,133.7c0-0.7,0-1.3-0.1-2.2c-0.1-0.9-0.2-2.1-0.4-3.3c0.4-0.7,0.8-1.5,1.1-2.3c0.3-0.8,0.6-1.6,0.8-2.4
			c0.2-0.8,0.2-1.6,0.1-2.5c-0.2-0.8-0.5-1.7-1.2-3.1c-0.7-1.3-1.7-3.1-2.1-5.1c-0.3-2,0-4.3,0.7-6.1c0.8-1.8,2-3.2,3-4.1
			c1-0.8,1.8-1.1,2.4-1.2c0.6-0.1,1.2,0.1,2,1c0.8,1,1.9,2.8,2.7,4.6c0.7,1.8,1.1,3.5,0.9,5.2c-0.2,1.8-0.9,3.6-1.6,4.9
			c-0.7,1.3-1.4,2.1-2,3.4c-0.6,1.3-1,3-1.5,4.5c-0.5,1.6-1.1,3-2,4.4C348.1,130.9,347.1,132.3,346.1,133.7L346.1,133.7z"/>
		<path class="st3" d="M314.8,124.5c-0.7-1-1.5-2-2-2.9c-0.5-0.8-0.9-1.4-1.3-2.1c-1.3,0-2.7-0.1-3.8-0.1c-1.1,0-1.9,0-2.7-0.3
			c-0.8-0.3-1.6-0.9-2.3-1.8c-0.7-0.9-1.4-2.1-2.7-3.4c-1.4-1.3-3.4-2.5-5.6-3.1c-2.1-0.5-4.4-0.3-6.3,0.2c-1.9,0.6-3.5,1.4-4.5,2.3
			c-1,0.9-1.4,1.8-1,3.2c0.4,1.4,1.7,3.2,3.4,4.7c1.7,1.6,3.8,2.9,5.9,3.5c2.1,0.6,4,0.5,5.4,0.1c1.4-0.4,2.2-1.2,3.4-1.4
			c1.2-0.2,2.8,0,4.2,0.2c1.4,0.2,2.5,0.2,4.1,0.4C310.7,124.2,312.7,124.3,314.8,124.5L314.8,124.5z"/>
		<path class="st4" d="M337.4,177.9c-17.9-24.8-32.9-34.9-57.7-50.4l-2.6-1.6c5.9,4.1,11.8,8,17.7,12
			C315.2,152,321.6,158.1,337.4,177.9L337.4,177.9z M392.4,186.1c-13.3,23.1-22.7,41.9-30.2,68.2c5.4-16,9.2-26.7,16.5-41.6
			C383.1,203.8,387.9,195.1,392.4,186.1L392.4,186.1z M330.6,207.4c0.4,21.3,2,46.3,4.6,67.6c-0.9-17.2-2.7-34.7-3.7-51.9
			C331.3,217.8,331,212.6,330.6,207.4L330.6,207.4z M295.8,101.4c-17.4-20.9-31-32.7-53.6-46.3c4.8,3.4,9.7,6.5,14.4,9.9
			C273.6,77,281.6,86.5,295.8,101.4L295.8,101.4z M362.8,120.6c-2,23.5-2.3,50.5-1,74.1c0.1-17.3-0.4-33.9,0.2-51.3
			C362.2,135.8,362.6,128.2,362.8,120.6L362.8,120.6z M308.3,75.5c2.4,3.8,4.8,7.6,7.2,11.4c13.1,20.9,16.3,32.5,24.5,55.4
			C332.1,114.7,324.6,98.4,308.3,75.5L308.3,75.5z M389.2,261.3c-20.6,13.9-33,25.8-48.1,46.3c12.7-14.8,19.4-23.9,34.9-36.2
			C380.3,268,384.8,264.8,389.2,261.3L389.2,261.3z M310,293.4c-17.5,14-24.9,21.8-38.2,40.4c-3.5,4.9-7,9.7-10.5,14.5
			c5-6.3,9.5-12.5,14.3-18.9C287.8,313,295.4,306.5,310,293.4L310,293.4z M360.8,327.6c-24.2,5.2-44.3,12.8-66.7,24.1
			c17-7.2,30.5-13.7,48.4-19C348.6,330.9,354.7,329.4,360.8,327.6L360.8,327.6z M311.8,374.3c-25.6-4-46.5-4.6-72.2-1.3
			c16.7-0.9,29.6-2.2,46.6-1.1C294.8,372.5,303.2,373.6,311.8,374.3L311.8,374.3z"/>
	</g>
</g>
<g id="Werbe_Wissender" class="st1">
	<g class="st2">
		<g>
			<g>
				<g>
					<path class="st5" d="M131.2,85.8c-1.6-3.7-3.8-7-6.7-9.9c-2.9-2.9-6.2-5.1-9.9-6.7c-3.8-1.6-7.9-2.4-12.1-2.4
						s-8.3,0.8-12.1,2.4c-3.7,1.6-7,3.8-9.9,6.7c-2.8,2.9-5.1,6.2-6.7,9.9c-1.6,3.8-2.4,7.9-2.4,12.1c0,6.8,2.1,13.2,6.2,18.6
						c0.2,0.3,6.5,9.2,7,14.7c0.1,0.7,0.1,1.3,0.2,1.9c0.2,2.1,0.3,3.6,1,5c0.7,1.5,2,3.1,3.9,5.2l0.3,0.4h6.7
						c-0.1-1.9-0.2-4.4-0.4-5.3c-0.1-0.9-0.2-1.9-0.4-3c-0.1-1.3-0.3-2.9-0.5-4.4l-0.1-1.1c0-0.4-0.1-0.8-0.1-1.1l-0.1-1.1l-0.2-1.1
						c-0.2-1.6-0.4-3.1-0.7-4.4c-0.1-0.4-0.1-0.8-0.2-1.1L94,120c0-0.2-0.1-0.4-0.1-0.6c-0.1-0.5-0.2-1-0.3-1.6v0
						c-0.1-0.6-0.2-1.2-0.3-1.8l-0.1-0.4c0-0.2-0.1-0.3-0.1-0.4c-0.1-0.6-0.2-1.2-0.4-1.7c-0.4-1.7-0.8-3-1.1-4.2l-0.3-1l-0.4-1
						l-0.3-0.8l-0.3-0.8c0-0.1-0.1-0.3-0.1-0.4c0-0.1,0-0.1-0.1-0.2c-0.1-0.3-0.2-0.6-0.3-0.9c0-0.1,0-0.2-0.1-0.3l0,0
						c0-0.1-0.1-0.3-0.1-0.4c0-0.1,0-0.1,0-0.2v0c0,0,0-0.1,0-0.1c0-0.1,0-0.1,0-0.2v0l-0.1-0.8l0-0.1c0-0.1,0-0.1,0-0.2
						c0-0.1,0-0.3,0-0.4v0l-0.1-0.6c0-0.1,0-0.3,0-0.4c0-0.1,0-0.1,0-0.2v0c0-0.9,0.1-1.8,0.3-2.6l0,0l0.1-0.4c0-0.1,0-0.2,0.1-0.3
						l0.1-0.4c0,0,0-0.1,0-0.1l0.1-0.1c0.2-0.4,0.4-0.8,0.7-1.2l0,0l0.2-0.3c0.1-0.1,0.1-0.2,0.2-0.2c0,0,0,0,0.1-0.1l0.2-0.2
						l0.2-0.2c0,0,0.1-0.1,0.2-0.2l0.3-0.2c0.1,0,0.1-0.1,0.2-0.1l0.1,0c0.1-0.1,0.2-0.1,0.3-0.2l0.2-0.1c0,0,0.1,0,0.1-0.1l0.3-0.2
						l0.2-0.1c0.1,0,0.2-0.1,0.2-0.1l0,0l0.3-0.1c0.1,0,0.2-0.1,0.2-0.1c0,0,0.1,0,0.1,0h0c0.5-0.1,1-0.2,1.5-0.2l0.2,0l0.2,0
						c0.1,0,0.1,0,0.2,0l0.2,0l0.1,0c0.3,0,0.6,0.1,0.8,0.2v0c0.4,0.1,0.8,0.3,1.3,0.5c0.7,0.3,1.4,0.8,2.1,1.3
						c0.7,0.5,1.3,1,1.9,1.5c0,0,0,0,0.1,0.1c0,0,0,0,0-0.1c0.6-0.5,1.3-1.1,1.9-1.5c0.8-0.5,1.5-1,2.1-1.3c0.4-0.2,0.9-0.4,1.3-0.5
						l0,0c0.2,0,0.5-0.1,0.8-0.2l0.1,0l0.1,0c0,0,0.1,0,0.2,0h0.4c0.5,0,1,0.1,1.5,0.2l0,0c0,0,0.1,0,0.1,0c0.1,0,0.1,0,0.2,0.1l0,0
						l0.3,0.1c0.1,0,0.2,0.1,0.2,0.1l0.2,0.1l0.2,0.1c0,0,0.1,0,0.1,0.1l0.2,0.1c0.1,0,0.2,0.1,0.3,0.2l0.1,0c0.1,0,0.1,0.1,0.2,0.2
						l0,0l0.2,0.2c0.1,0.1,0.1,0.1,0.2,0.2l0.3,0.3l0.1,0.1c0,0,0,0,0,0.1c0,0.1,0.1,0.1,0.2,0.2l0,0l0.2,0.3
						c0.3,0.4,0.5,0.8,0.7,1.2l0.1,0.2c0,0,0,0.1,0,0.1l0,0.1l0.1,0.3c0,0.1,0.1,0.2,0.1,0.3l0.1,0.4c0.2,0.8,0.3,1.7,0.3,2.6l0,0
						v0.2c0,0.1,0,0.3,0,0.4v0l-0.1,0.6c0,0.1,0,0.3-0.1,0.4l0,0.2l0,0.2l-0.1,0.7c0,0.1,0,0.1,0,0.2c0,0,0,0.1,0,0.1v0
						c0,0.1,0,0.1,0,0.2c0,0.1-0.1,0.3-0.1,0.4l0,0c0,0.1,0,0.2-0.1,0.3c-0.1,0.3-0.2,0.6-0.3,0.8c0,0.1,0,0.1-0.1,0.2
						c0,0.1-0.1,0.2-0.1,0.4v0l-0.3,0.8l-0.3,0.8l-0.4,1l-0.4,1c-0.4,1.2-0.8,2.5-1.1,4.2c-0.1,0.6-0.3,1.1-0.4,1.7
						c0,0.2-0.1,0.3-0.1,0.5l-0.1,0.4c-0.1,0.6-0.2,1.2-0.3,1.8v0c-0.1,0.5-0.2,1-0.3,1.6c0,0.2-0.1,0.4-0.1,0.6l-0.2,1.1
						c-0.1,0.3-0.1,0.7-0.2,1.1c-0.2,1.5-0.5,3-0.7,4.4c-0.2,1.3-0.4,2.6-0.6,4.4c-0.1,0.7-0.2,1.5-0.3,2.2l-0.2,2.2
						c-0.1,0.6-0.2,1.5-0.3,2.6c-0.2,1.3-0.3,4-0.5,5.8h6.9l0.3-0.4c2-2.1,3.2-3.7,3.9-5.2c0.7-1.5,0.8-2.9,1-5
						c0.1-0.5,0.1-1.2,0.2-1.9c0.6-5.5,6.8-14.4,7-14.7c4-5.4,6.2-11.8,6.2-18.6C133.7,93.7,132.9,89.7,131.2,85.8z M108.6,120.7
						l0.2-1.1c0-0.2,0.1-0.4,0.1-0.6c0.1-0.5,0.2-1.1,0.3-1.6c0.1-0.6,0.2-1.2,0.4-1.8l0.1-0.4c0-0.2,0.1-0.3,0.1-0.5
						c0.1-0.6,0.2-1.2,0.4-1.7c0.4-1.7,0.8-3.1,1.2-4.4l0,0l0.4-1.1l0.4-1l0.3-0.8l0.3-0.8c0-0.1,0.1-0.2,0.1-0.3
						c0-0.1,0-0.1,0.1-0.2v0c0.1-0.2,0.2-0.5,0.2-0.7c0-0.1,0.1-0.2,0.1-0.3c0-0.1,0-0.2,0.1-0.3c0-0.1,0-0.1,0-0.2c0,0,0-0.1,0-0.1
						c0,0,0-0.1,0-0.1l0.1-0.7l0-0.1c0-0.1,0-0.1,0-0.2c0-0.1,0-0.2,0.1-0.3l0-0.5c0-0.1,0-0.2,0-0.3c0-0.1,0-0.1,0-0.2
						c0-0.7-0.1-1.4-0.2-2l-0.1-0.3c0,0,0-0.1,0-0.1c0,0,0-0.1,0-0.1l0,0l-0.1-0.3l-0.1-0.2c-0.1-0.3-0.3-0.5-0.5-0.8l-0.2-0.2
						c0,0,0-0.1-0.1-0.1c0,0,0-0.1-0.1-0.1l-0.1-0.1l-0.2-0.2c0,0,0,0,0,0l0,0l-0.2-0.2c0,0-0.1-0.1-0.1-0.1c0,0,0,0-0.1-0.1l0,0
						c0,0-0.1-0.1-0.1-0.1c0,0,0,0-0.1,0l-0.1-0.1c0,0,0,0,0,0c0,0,0,0,0,0l-0.2-0.1l-0.1,0c0,0-0.1,0-0.1-0.1l-0.2-0.1
						c0,0-0.1,0-0.1,0c0,0-0.1,0-0.1,0c-0.3-0.1-0.6-0.1-0.9-0.1h-0.2c0,0,0,0,0,0h-0.1l-0.1,0c-0.1,0-0.3,0-0.5,0.1
						c-0.3,0.1-0.6,0.2-0.9,0.4c-0.6,0.3-1.2,0.6-1.8,1.1c-0.5,0.4-1.1,0.8-1.7,1.3c0,0,0,0,0,0c0.6,0.7,1.1,1.3,1.5,2
						c0.3,0.4,0.5,0.8,0.7,1.2l0,0.1c0,0.1,0.1,0.2,0.1,0.2l0.1,0.2l0.1,0.1c0,0.1,0.1,0.2,0.1,0.3l0,0.1c0,0,0,0.1,0,0.2l0,0.1
						c0,0,0,0.1,0,0.2c0.1,0.3,0.1,0.5,0.1,0.8c0,0.3,0,0.7-0.1,1l0,0.1c0,0.1,0,0.1-0.1,0.2v0c0,0.1,0,0.1-0.1,0.2l0,0.1
						c0,0.1-0.1,0.1-0.1,0.2l0,0c0,0.1-0.1,0.2-0.1,0.2l0,0.1c-0.2,0.3-0.5,0.6-0.7,0.8c-0.1,0-0.1,0.1-0.2,0.1l-0.2,0.1l-0.1,0.1
						c-0.2,0.1-0.3,0.2-0.5,0.2c-0.2,0.1-0.5,0.1-0.8,0.2c-0.5,0.1-0.9,0.1-1.4,0.1c-0.5,0-1,0-1.4-0.1c-0.3-0.1-0.6-0.1-0.8-0.2
						c-0.2-0.1-0.3-0.1-0.5-0.2l-0.1-0.1l-0.2-0.1c0,0-0.1-0.1-0.2-0.1c-0.3-0.2-0.5-0.5-0.7-0.8l0-0.1c0,0-0.1-0.1-0.1-0.2l0,0
						c0-0.1-0.1-0.1-0.1-0.2l0-0.1c0-0.1,0-0.1-0.1-0.2l0,0c0-0.1,0-0.1-0.1-0.2l0-0.1c-0.1-0.3-0.1-0.6-0.1-1c0-0.1,0-0.1,0-0.2
						l0-0.2c0,0,0-0.1,0-0.1l0-0.1c0,0,0-0.1,0-0.1l0,0l0-0.1c0-0.1,0-0.2,0.1-0.2l0-0.1c0,0,0-0.1,0-0.2l0-0.1c0-0.1,0-0.2,0.1-0.3
						l0.1-0.2l0-0.1c0-0.1,0.1-0.2,0.1-0.2l0-0.1c0.2-0.4,0.4-0.8,0.7-1.1c0.4-0.7,0.9-1.3,1.5-2c0,0,0,0,0,0
						c-0.5-0.5-1.1-0.9-1.7-1.3c-0.6-0.5-1.2-0.8-1.8-1.1c-0.3-0.2-0.6-0.3-0.9-0.4c-0.2,0-0.3-0.1-0.4-0.1l-0.1,0c0,0,0,0-0.1,0
						h-0.3c-0.3,0-0.6,0.1-0.9,0.2c0,0-0.1,0-0.1,0c0,0-0.1,0-0.1,0l-0.2,0.1c0,0-0.1,0-0.1,0.1L93.9,95l-0.1,0.1c0,0,0,0,0,0
						c0,0,0,0,0,0l-0.1,0.1c0,0,0,0-0.1,0c0,0-0.1,0-0.1,0.1l0,0c0,0-0.1,0-0.1,0.1c0,0-0.1,0.1-0.1,0.1L93,95.7l-0.2,0.2L92.7,96
						c0,0,0,0.1-0.1,0.1c0,0-0.1,0.1-0.1,0.1l-0.2,0.2c-0.2,0.3-0.4,0.6-0.5,0.8l-0.1,0.2l0,0.1l-0.1,0.3c0,0,0,0.1,0,0.1
						c0,0,0,0,0,0.1l-0.1,0.3c-0.1,0.6-0.2,1.3-0.2,2c0,0.1,0,0.1,0,0.2c0,0.1,0,0.2,0,0.3l0,0.5c0,0.1,0,0.2,0,0.3
						c0,0.1,0,0.1,0,0.2l0,0.1l0.1,0.7c0,0,0,0.1,0,0.1c0,0,0,0.1,0,0.1c0,0.1,0,0.1,0,0.2c0,0.1,0,0.2,0.1,0.3c0,0.1,0,0.2,0.1,0.3
						c0.1,0.3,0.1,0.5,0.2,0.7l0,0c0,0.1,0,0.1,0.1,0.2c0,0.1,0.1,0.2,0.1,0.3l0.3,0.8l0.3,0.8l0.4,1.1l0.4,1.1
						c0.4,1.3,0.8,2.7,1.2,4.4c0.1,0.6,0.3,1.2,0.4,1.8c0,0.2,0.1,0.3,0.1,0.4v0l0.1,0.4c0.1,0.6,0.2,1.2,0.3,1.8
						c0.1,0.5,0.2,1.1,0.3,1.6c0,0.2,0.1,0.4,0.1,0.6v0l0.2,1.1c0.1,0.3,0.1,0.7,0.2,1.1c0.2,1.3,0.4,2.8,0.6,4.4l0.2,1.1l0.1,1.1
						c0,0.3,0.1,0.7,0.1,1.1l0.1,1.1c0.2,1.6,0.4,3.1,0.5,4.5c0.1,1.2,0.2,2.1,0.4,3c0.1,0.9,0.2,4.1,0.4,5.6h6.9
						c0.1-1.5,0.3-4.9,0.4-6.1c0.1-1,0.3-2,0.3-2.6l0.2-2.2c0.1-0.8,0.2-1.5,0.3-2.2c0.2-1.8,0.4-3.2,0.6-4.5
						c0.2-1.4,0.4-2.9,0.7-4.4C108.5,121.4,108.6,121,108.6,120.7z M100.7,101.7c0,0.1,0,0.1-0.1,0.1l-0.1,0.3c0,0,0,0.1,0,0.1
						c0,0,0,0.1,0,0.1c0,0,0,0,0,0.1l0,0.1c0,0,0,0,0,0.1l0,0.1c0,0,0,0,0,0.1l0,0.1v0.1l0,0v0c0,0.1,0,0.2,0,0.4l0,0.1
						c0,0,0,0.1,0,0.1c0,0,0,0.1,0,0.1c0,0,0,0,0,0c0,0,0,0,0,0c0.1,0.1,0.2,0.2,0.2,0.2l0,0c0,0,0,0,0,0c0,0,0,0,0,0l0.1,0
						c0,0,0.1,0,0.1,0.1c0.1,0,0.3,0.1,0.5,0.1c0.3,0.1,0.6,0.1,1,0.1c0.4,0,0.7,0,1-0.1c0.2,0,0.3-0.1,0.4-0.1c0.1,0,0.1,0,0.2-0.1
						l0.1,0c0,0,0,0,0.1,0c0,0,0,0,0,0l0,0c0.1-0.1,0.2-0.2,0.2-0.2c0,0,0,0,0,0s0,0,0,0c0,0,0-0.1,0.1-0.1c0,0,0,0,0-0.1l0,0l0-0.1
						c0-0.1,0-0.2,0-0.4c0-0.2,0-0.3-0.1-0.4l0,0c0,0,0,0,0,0l0-0.1c0,0,0,0,0-0.1c0,0,0,0,0-0.1c0-0.1,0-0.1,0-0.1l-0.1-0.3
						c0,0,0-0.1-0.1-0.1l0-0.1c-0.1-0.3-0.3-0.6-0.5-0.9c-0.4-0.5-0.8-1.1-1.3-1.6c-0.5,0.6-0.9,1.1-1.3,1.7
						C101.1,101.1,100.9,101.3,100.7,101.7L100.7,101.7z"/>
				</g>
				<path class="st5" d="M94.5,159.5h16.1C110.6,159.5,102.6,166.7,94.5,159.5z"/>
			</g>
			<g>
				<path class="st5" d="M102.6,49c-0.8,0-1.4,0.6-1.4,1.4v12.4c0,0.8,0.6,1.4,1.4,1.4c0.8,0,1.4-0.6,1.4-1.4V50.4
					C104,49.6,103.3,49,102.6,49z"/>
				<path class="st5" d="M127.4,60.8c-0.3-0.2-0.7-0.2-1.1-0.2c-0.4,0.1-0.7,0.3-0.9,0.6l-3.9,6.5c-0.4,0.7-0.2,1.5,0.5,1.9
					c0.2,0.1,0.5,0.2,0.7,0.2c0.5,0,0.9-0.3,1.2-0.7l3.9-6.5C128.3,62,128.1,61.2,127.4,60.8z"/>
				<path class="st5" d="M149.4,77.3c-0.2-0.3-0.5-0.6-0.8-0.7c-0.4-0.1-0.7-0.1-1.1,0.1l-11,5.8c-0.3,0.2-0.6,0.5-0.7,0.8
					c-0.1,0.4-0.1,0.7,0.1,1.1c0.2,0.5,0.7,0.7,1.2,0.7c0.2,0,0.5-0.1,0.7-0.2l11-5.8C149.5,78.9,149.7,78,149.4,77.3z"/>
				<path class="st5" d="M83.6,67.8l-3.9-6.5c-0.2-0.3-0.5-0.5-0.9-0.6c-0.4-0.1-0.7,0-1.1,0.2c-0.7,0.4-0.9,1.3-0.5,1.9l3.9,6.5
					c0.3,0.4,0.7,0.7,1.2,0.7c0.3,0,0.5-0.1,0.7-0.2C83.7,69.3,84,68.4,83.6,67.8z"/>
				<path class="st5" d="M69.3,83.4c-0.1-0.4-0.4-0.6-0.7-0.8l-11-5.8c-0.3-0.2-0.7-0.2-1.1-0.1c-0.4,0.1-0.6,0.4-0.8,0.7
					c-0.2,0.3-0.2,0.7-0.1,1.1c0.1,0.4,0.4,0.6,0.7,0.8l11,5.8c0.2,0.1,0.4,0.2,0.7,0.2c0.5,0,1-0.3,1.2-0.7
					C69.4,84.1,69.4,83.7,69.3,83.4z"/>
			</g>
		</g>
		<g>
			<g>
				<path class="st5" d="M114.5,147.9H90.6c-0.8,0-1.5-0.7-1.5-1.5c0-0.8,0.7-1.5,1.5-1.5h23.9c0.8,0,1.5,0.7,1.5,1.5
					C116,147.3,115.4,147.9,114.5,147.9z"/>
			</g>
			<g>
				<path class="st5" d="M113.8,152.9H91.3c-0.8,0-1.5-0.7-1.5-1.5c0-0.8,0.7-1.5,1.5-1.5h22.4c0.8,0,1.5,0.7,1.5,1.5
					C115.3,152.2,114.6,152.9,113.8,152.9z"/>
			</g>
			<g>
				<path class="st5" d="M113,157.8H92.1c-0.8,0-1.5-0.7-1.5-1.5c0-0.8,0.7-1.5,1.5-1.5H113c0.8,0,1.5,0.7,1.5,1.5
					C114.5,157.2,113.9,157.8,113,157.8z"/>
			</g>
		</g>
	</g>
	<g class="st2">
		<g>
			<g>
				<g>
					<path class="st5" d="M84.3,223.6c-1.6-3.7-3.8-7-6.7-9.9c-2.9-2.9-6.2-5.1-9.9-6.7c-3.8-1.6-7.9-2.4-12.1-2.4
						s-8.3,0.8-12.1,2.4c-3.7,1.6-7,3.8-9.9,6.7c-2.8,2.9-5.1,6.2-6.7,9.9c-1.6,3.8-2.4,7.9-2.4,12.1c0,6.8,2.1,13.2,6.2,18.6
						c0.2,0.3,6.5,9.2,7,14.7c0.1,0.7,0.1,1.3,0.2,1.9c0.2,2.1,0.3,3.6,1,5c0.7,1.5,2,3.1,3.9,5.2l0.3,0.4h6.7
						c-0.1-1.9-0.2-4.4-0.4-5.3c-0.1-0.9-0.2-1.9-0.4-3c-0.1-1.3-0.3-2.9-0.5-4.4l-0.1-1.1c0-0.4-0.1-0.8-0.1-1.1l-0.1-1.1l-0.2-1.1
						c-0.2-1.6-0.4-3.1-0.7-4.4c-0.1-0.4-0.1-0.8-0.2-1.1l-0.2-1.1c0-0.2-0.1-0.4-0.1-0.6c-0.1-0.5-0.2-1-0.3-1.6v0
						c-0.1-0.6-0.2-1.2-0.3-1.8l-0.1-0.4c0-0.2-0.1-0.3-0.1-0.4c-0.1-0.6-0.2-1.2-0.4-1.7c-0.4-1.7-0.8-3-1.1-4.2l-0.3-1l-0.4-1
						l-0.3-0.8l-0.3-0.8c0-0.1-0.1-0.3-0.1-0.4c0-0.1,0-0.1-0.1-0.2c-0.1-0.3-0.2-0.6-0.3-0.9c0-0.1,0-0.2-0.1-0.3l0,0
						c0-0.1-0.1-0.3-0.1-0.4c0-0.1,0-0.1,0-0.2v0c0,0,0-0.1,0-0.1c0-0.1,0-0.1,0-0.2v0l-0.1-0.8l0-0.1c0-0.1,0-0.1,0-0.2
						c0-0.1,0-0.3,0-0.4v0l-0.1-0.6c0-0.1,0-0.3,0-0.4c0-0.1,0-0.1,0-0.2v0c0-0.9,0.1-1.8,0.3-2.6l0,0l0.1-0.4c0-0.1,0-0.2,0.1-0.3
						l0.1-0.4c0,0,0-0.1,0-0.1l0.1-0.1c0.2-0.4,0.4-0.8,0.7-1.2l0,0l0.2-0.3c0.1-0.1,0.1-0.2,0.2-0.2c0,0,0,0,0.1-0.1l0.2-0.2
						l0.2-0.2c0,0,0.1-0.1,0.2-0.2l0.3-0.2c0.1,0,0.1-0.1,0.2-0.1l0.1,0c0.1-0.1,0.2-0.1,0.3-0.2l0.2-0.1c0,0,0.1,0,0.1-0.1l0.3-0.2
						l0.2-0.1c0.1,0,0.2-0.1,0.2-0.1l0,0l0.3-0.1c0.1,0,0.2-0.1,0.2-0.1c0,0,0.1,0,0.1,0h0c0.5-0.1,1-0.2,1.5-0.2l0.2,0l0.2,0
						c0.1,0,0.1,0,0.2,0l0.2,0l0.1,0c0.3,0,0.6,0.1,0.8,0.2v0c0.4,0.1,0.8,0.3,1.3,0.5c0.7,0.3,1.4,0.8,2.1,1.3
						c0.7,0.5,1.3,1,1.9,1.5c0,0,0,0,0.1,0.1c0,0,0,0,0-0.1c0.6-0.5,1.3-1.1,1.9-1.5c0.8-0.5,1.5-1,2.1-1.3c0.4-0.2,0.9-0.4,1.3-0.5
						l0,0c0.2,0,0.5-0.1,0.8-0.2l0.1,0l0.1,0c0,0,0.1,0,0.2,0h0.4c0.5,0,1,0.1,1.5,0.2l0,0c0,0,0.1,0,0.1,0c0.1,0,0.1,0,0.2,0.1l0,0
						l0.3,0.1c0.1,0,0.2,0.1,0.2,0.1l0.2,0.1l0.2,0.1c0,0,0.1,0,0.1,0.1l0.2,0.1c0.1,0,0.2,0.1,0.3,0.2l0.1,0c0.1,0,0.1,0.1,0.2,0.2
						l0,0l0.2,0.2c0.1,0.1,0.1,0.1,0.2,0.2l0.3,0.3l0.1,0.1c0,0,0,0,0,0.1c0,0.1,0.1,0.1,0.2,0.2l0,0l0.2,0.3
						c0.3,0.4,0.5,0.8,0.7,1.2l0.1,0.2c0,0,0,0.1,0,0.1l0,0.1l0.1,0.3c0,0.1,0.1,0.2,0.1,0.3l0.1,0.4c0.2,0.8,0.3,1.7,0.3,2.6l0,0
						v0.2c0,0.1,0,0.3,0,0.4v0l-0.1,0.6c0,0.1,0,0.3-0.1,0.4l0,0.2l0,0.2l-0.1,0.7c0,0.1,0,0.1,0,0.2c0,0,0,0.1,0,0.1v0
						c0,0.1,0,0.1,0,0.2c0,0.1-0.1,0.3-0.1,0.4l0,0c0,0.1,0,0.2-0.1,0.3c-0.1,0.3-0.2,0.6-0.3,0.8c0,0.1,0,0.1-0.1,0.2
						c0,0.1-0.1,0.2-0.1,0.4v0l-0.3,0.8l-0.3,0.8l-0.4,1l-0.4,1c-0.4,1.2-0.8,2.5-1.1,4.2c-0.1,0.6-0.3,1.1-0.4,1.7
						c0,0.2-0.1,0.3-0.1,0.5l-0.1,0.4c-0.1,0.6-0.2,1.2-0.3,1.8v0c-0.1,0.5-0.2,1-0.3,1.6c0,0.2-0.1,0.4-0.1,0.6l-0.2,1.1
						c-0.1,0.3-0.1,0.7-0.2,1.1c-0.2,1.5-0.5,3-0.7,4.4c-0.2,1.3-0.4,2.6-0.6,4.4c-0.1,0.7-0.2,1.5-0.3,2.2l-0.2,2.2
						c-0.1,0.6-0.2,1.5-0.3,2.6c-0.2,1.3-0.3,4-0.5,5.8h6.9l0.3-0.4c2-2.1,3.2-3.7,3.9-5.2c0.7-1.5,0.8-2.9,1-5
						c0.1-0.5,0.1-1.2,0.2-1.9c0.6-5.5,6.8-14.4,7-14.7c4-5.4,6.2-11.8,6.2-18.6C86.7,231.5,85.9,227.5,84.3,223.6z M61.7,258.5
						l0.2-1.1c0-0.2,0.1-0.4,0.1-0.6c0.1-0.5,0.2-1.1,0.3-1.6c0.1-0.6,0.2-1.2,0.4-1.8l0.1-0.4c0-0.2,0.1-0.3,0.1-0.5
						c0.1-0.6,0.2-1.2,0.4-1.7c0.4-1.7,0.8-3.1,1.2-4.4l0,0l0.4-1.1l0.4-1l0.3-0.8l0.3-0.8c0-0.1,0.1-0.2,0.1-0.3
						c0-0.1,0-0.1,0.1-0.2v0c0.1-0.2,0.2-0.5,0.2-0.7c0-0.1,0.1-0.2,0.1-0.3c0-0.1,0-0.2,0.1-0.3c0-0.1,0-0.1,0-0.2c0,0,0-0.1,0-0.1
						c0,0,0-0.1,0-0.1l0.1-0.7l0-0.1c0-0.1,0-0.1,0-0.2c0-0.1,0-0.2,0.1-0.3l0-0.5c0-0.1,0-0.2,0-0.3c0-0.1,0-0.1,0-0.2
						c0-0.7-0.1-1.4-0.2-2l-0.1-0.3c0,0,0-0.1,0-0.1c0,0,0-0.1,0-0.1l0,0l-0.1-0.3l-0.1-0.2c-0.1-0.3-0.3-0.5-0.5-0.8l-0.2-0.2
						c0,0,0-0.1-0.1-0.1c0,0,0-0.1-0.1-0.1l-0.1-0.1l-0.2-0.2c0,0,0,0,0,0l0,0l-0.2-0.2c0,0-0.1-0.1-0.1-0.1c0,0,0,0-0.1-0.1l0,0
						c0,0-0.1-0.1-0.1-0.1c0,0,0,0-0.1,0l-0.1-0.1c0,0,0,0,0,0c0,0,0,0,0,0l-0.2-0.1l-0.1,0c0,0-0.1,0-0.1-0.1l-0.2-0.1
						c0,0-0.1,0-0.1,0c0,0-0.1,0-0.1,0c-0.3-0.1-0.6-0.1-0.9-0.1h-0.2c0,0,0,0,0,0h-0.1l-0.1,0c-0.1,0-0.3,0-0.5,0.1
						c-0.3,0.1-0.6,0.2-0.9,0.4c-0.6,0.3-1.2,0.6-1.8,1.1c-0.5,0.4-1.1,0.8-1.7,1.3c0,0,0,0,0,0c0.6,0.7,1.1,1.3,1.5,2
						c0.3,0.4,0.5,0.8,0.7,1.2l0,0.1c0,0.1,0.1,0.2,0.1,0.2l0.1,0.2l0.1,0.1c0,0.1,0.1,0.2,0.1,0.3l0,0.1c0,0,0,0.1,0,0.2l0,0.1
						c0,0,0,0.1,0,0.2c0.1,0.3,0.1,0.5,0.1,0.8c0,0.3,0,0.7-0.1,1l0,0.1c0,0.1,0,0.1-0.1,0.2v0c0,0.1,0,0.1-0.1,0.2l0,0.1
						c0,0.1-0.1,0.1-0.1,0.2l0,0c0,0.1-0.1,0.2-0.1,0.2l0,0.1c-0.2,0.3-0.5,0.6-0.7,0.8c-0.1,0-0.1,0.1-0.2,0.1l-0.2,0.1l-0.1,0.1
						c-0.2,0.1-0.3,0.2-0.5,0.2c-0.2,0.1-0.5,0.1-0.8,0.2c-0.5,0.1-0.9,0.1-1.4,0.1c-0.5,0-1,0-1.4-0.1c-0.3-0.1-0.6-0.1-0.8-0.2
						c-0.2-0.1-0.3-0.1-0.5-0.2l-0.1-0.1l-0.2-0.1c0,0-0.1-0.1-0.2-0.1c-0.3-0.2-0.5-0.5-0.7-0.8l0-0.1c0,0-0.1-0.1-0.1-0.2l0,0
						c0-0.1-0.1-0.1-0.1-0.2l0-0.1c0-0.1,0-0.1-0.1-0.2l0,0c0-0.1,0-0.1-0.1-0.2l0-0.1c-0.1-0.3-0.1-0.6-0.1-1c0-0.1,0-0.1,0-0.2
						l0-0.2c0,0,0-0.1,0-0.1l0-0.1c0,0,0-0.1,0-0.1l0,0l0-0.1c0-0.1,0-0.2,0.1-0.2l0-0.1c0,0,0-0.1,0-0.2l0-0.1c0-0.1,0-0.2,0.1-0.3
						l0.1-0.2l0-0.1c0-0.1,0.1-0.2,0.1-0.2l0-0.1c0.2-0.4,0.4-0.8,0.7-1.1c0.4-0.7,0.9-1.3,1.5-2c0,0,0,0,0,0
						c-0.5-0.5-1.1-0.9-1.7-1.3c-0.6-0.5-1.2-0.8-1.8-1.1c-0.3-0.2-0.6-0.3-0.9-0.4c-0.2,0-0.3-0.1-0.4-0.1l-0.1,0c0,0,0,0-0.1,0
						h-0.3c-0.3,0-0.6,0.1-0.9,0.2c0,0-0.1,0-0.1,0c0,0-0.1,0-0.1,0l-0.2,0.1c0,0-0.1,0-0.1,0.1l-0.2,0.1l-0.1,0.1c0,0,0,0,0,0
						c0,0,0,0,0,0l-0.1,0.1c0,0,0,0-0.1,0c0,0-0.1,0-0.1,0.1l0,0c0,0-0.1,0-0.1,0.1c0,0-0.1,0.1-0.1,0.1l-0.2,0.2l-0.2,0.2l-0.1,0.1
						c0,0,0,0.1-0.1,0.1c0,0-0.1,0.1-0.1,0.1l-0.2,0.2c-0.2,0.3-0.4,0.6-0.5,0.8l-0.1,0.2l0,0.1l-0.1,0.3c0,0,0,0.1,0,0.1
						c0,0,0,0,0,0.1l-0.1,0.3c-0.1,0.6-0.2,1.3-0.2,2c0,0.1,0,0.1,0,0.2c0,0.1,0,0.2,0,0.3l0,0.5c0,0.1,0,0.2,0,0.3
						c0,0.1,0,0.1,0,0.2l0,0.1l0.1,0.7c0,0,0,0.1,0,0.1c0,0,0,0.1,0,0.1c0,0.1,0,0.1,0,0.2c0,0.1,0,0.2,0.1,0.3c0,0.1,0,0.2,0.1,0.3
						c0.1,0.3,0.1,0.5,0.2,0.7l0,0c0,0.1,0,0.1,0.1,0.2c0,0.1,0.1,0.2,0.1,0.3l0.3,0.8l0.3,0.8l0.4,1.1l0.4,1.1
						c0.4,1.3,0.8,2.7,1.2,4.4c0.1,0.6,0.3,1.2,0.4,1.8c0,0.2,0.1,0.3,0.1,0.4v0l0.1,0.4c0.1,0.6,0.2,1.2,0.3,1.8
						c0.1,0.5,0.2,1.1,0.3,1.6c0,0.2,0.1,0.4,0.1,0.6v0l0.2,1.1c0.1,0.3,0.1,0.7,0.2,1.1c0.2,1.3,0.4,2.8,0.6,4.4l0.2,1.1l0.1,1.1
						c0,0.3,0.1,0.7,0.1,1.1l0.1,1.1c0.2,1.6,0.4,3.1,0.5,4.5c0.1,1.2,0.2,2.1,0.4,3c0.1,0.9,0.2,4.1,0.4,5.6H59
						c0.1-1.5,0.3-4.9,0.4-6.1c0.1-1,0.3-2,0.3-2.6l0.2-2.2c0.1-0.8,0.2-1.5,0.3-2.2c0.2-1.8,0.4-3.2,0.6-4.5
						c0.2-1.4,0.4-2.9,0.7-4.4C61.6,259.2,61.6,258.8,61.7,258.5z M53.8,239.5c0,0.1,0,0.1-0.1,0.1l-0.1,0.3c0,0,0,0.1,0,0.1
						c0,0,0,0.1,0,0.1c0,0,0,0,0,0.1l0,0.1c0,0,0,0,0,0.1l0,0.1c0,0,0,0,0,0.1l0,0.1v0.1l0,0v0c0,0.1,0,0.2,0,0.4l0,0.1
						c0,0,0,0.1,0,0.1c0,0,0,0.1,0,0.1c0,0,0,0,0,0c0,0,0,0,0,0c0.1,0.1,0.2,0.2,0.2,0.2l0,0c0,0,0,0,0,0c0,0,0,0,0,0l0.1,0
						c0,0,0.1,0,0.1,0.1c0.1,0,0.3,0.1,0.5,0.1c0.3,0.1,0.6,0.1,1,0.1c0.4,0,0.7,0,1-0.1c0.2,0,0.3-0.1,0.4-0.1c0.1,0,0.1,0,0.2-0.1
						l0.1,0c0,0,0,0,0.1,0c0,0,0,0,0,0l0,0c0.1-0.1,0.2-0.2,0.2-0.2c0,0,0,0,0,0s0,0,0,0c0,0,0-0.1,0.1-0.1c0,0,0,0,0-0.1l0,0l0-0.1
						c0-0.1,0-0.2,0-0.4c0-0.2,0-0.3-0.1-0.4l0,0c0,0,0,0,0,0l0-0.1c0,0,0,0,0-0.1c0,0,0,0,0-0.1c0-0.1,0-0.1,0-0.1l-0.1-0.3
						c0,0,0-0.1-0.1-0.1l0-0.1c-0.1-0.3-0.3-0.6-0.5-0.9c-0.4-0.5-0.8-1.1-1.3-1.6c-0.5,0.6-0.9,1.1-1.3,1.7
						C54.1,238.9,54,239.1,53.8,239.5L53.8,239.5z"/>
				</g>
				<path class="st5" d="M47.6,297.3h16.1C63.6,297.3,55.6,304.4,47.6,297.3z"/>
			</g>
			<g>
				<path class="st5" d="M55.6,186.8c-0.8,0-1.4,0.6-1.4,1.4v12.4c0,0.8,0.6,1.4,1.4,1.4c0.8,0,1.4-0.6,1.4-1.4v-12.4
					C57,187.4,56.4,186.8,55.6,186.8z"/>
				<path class="st5" d="M80.5,198.6c-0.3-0.2-0.7-0.2-1.1-0.2c-0.4,0.1-0.7,0.3-0.9,0.6l-3.9,6.5c-0.4,0.7-0.2,1.5,0.5,1.9
					c0.2,0.1,0.5,0.2,0.7,0.2c0.5,0,0.9-0.3,1.2-0.7l3.9-6.5C81.3,199.8,81.1,199,80.5,198.6z"/>
				<path class="st5" d="M102.4,215.1c-0.2-0.3-0.5-0.6-0.8-0.7c-0.4-0.1-0.7-0.1-1.1,0.1l-11,5.8c-0.3,0.2-0.6,0.5-0.7,0.8
					c-0.1,0.4-0.1,0.7,0.1,1.1c0.2,0.5,0.7,0.7,1.2,0.7c0.2,0,0.5-0.1,0.7-0.2l11-5.8C102.5,216.7,102.8,215.8,102.4,215.1z"/>
				<path class="st5" d="M36.6,205.6l-3.9-6.5c-0.2-0.3-0.5-0.5-0.9-0.6c-0.4-0.1-0.7,0-1.1,0.2c-0.7,0.4-0.9,1.3-0.5,1.9l3.9,6.5
					c0.3,0.4,0.7,0.7,1.2,0.7c0.3,0,0.5-0.1,0.7-0.2C36.8,207.1,37,206.2,36.6,205.6z"/>
				<path class="st5" d="M22.4,221.2c-0.1-0.4-0.4-0.6-0.7-0.8l-11-5.8c-0.3-0.2-0.7-0.2-1.1-0.1c-0.4,0.1-0.6,0.4-0.8,0.7
					c-0.2,0.3-0.2,0.7-0.1,1.1c0.1,0.4,0.4,0.6,0.7,0.8l11,5.8c0.2,0.1,0.4,0.2,0.7,0.2c0.5,0,1-0.3,1.2-0.7
					C22.5,221.9,22.5,221.5,22.4,221.2z"/>
			</g>
		</g>
		<g>
			<g>
				<path class="st5" d="M67.6,285.7H43.6c-0.8,0-1.5-0.7-1.5-1.5c0-0.8,0.7-1.5,1.5-1.5h23.9c0.8,0,1.5,0.7,1.5,1.5
					C69.1,285.1,68.4,285.7,67.6,285.7z"/>
			</g>
			<g>
				<path class="st5" d="M66.8,290.7H44.4c-0.8,0-1.5-0.7-1.5-1.5s0.7-1.5,1.5-1.5h22.4c0.8,0,1.5,0.7,1.5,1.5
					S67.7,290.7,66.8,290.7z"/>
			</g>
			<g>
				<path class="st5" d="M66.1,295.6H45.1c-0.8,0-1.5-0.7-1.5-1.5s0.7-1.5,1.5-1.5h20.9c0.8,0,1.5,0.7,1.5,1.5
					S66.9,295.6,66.1,295.6z"/>
			</g>
		</g>
	</g>
	<g class="st2">
		<g>
			<g>
				<g>
					<path class="st5" d="M397.2,229c-1.6-3.7-3.8-7-6.7-9.9c-2.9-2.9-6.2-5.1-9.9-6.7c-3.8-1.6-7.9-2.4-12.1-2.4s-8.3,0.8-12.1,2.4
						c-3.7,1.6-7,3.8-9.9,6.7c-2.8,2.9-5.1,6.2-6.7,9.9c-1.6,3.8-2.4,7.9-2.4,12.1c0,6.8,2.1,13.2,6.2,18.6c0.2,0.3,6.5,9.2,7,14.7
						c0.1,0.7,0.1,1.3,0.2,1.9c0.2,2.1,0.3,3.6,1,5c0.7,1.5,2,3.1,3.9,5.2l0.3,0.4h6.7c-0.1-1.9-0.2-4.4-0.4-5.3
						c-0.1-0.9-0.2-1.9-0.4-3c-0.1-1.3-0.3-2.9-0.5-4.4l-0.1-1.1c0-0.4-0.1-0.8-0.1-1.1l-0.1-1.1l-0.2-1.1c-0.2-1.6-0.4-3.1-0.7-4.4
						c-0.1-0.4-0.1-0.8-0.2-1.1l-0.2-1.1c0-0.2-0.1-0.4-0.1-0.6c-0.1-0.5-0.2-1-0.3-1.6v0c-0.1-0.6-0.2-1.2-0.3-1.8l-0.1-0.4
						c0-0.2-0.1-0.3-0.1-0.4c-0.1-0.6-0.2-1.2-0.4-1.7c-0.4-1.7-0.8-3-1.1-4.2l-0.3-1l-0.4-1l-0.3-0.8l-0.3-0.8
						c0-0.1-0.1-0.3-0.1-0.4c0-0.1,0-0.1-0.1-0.2c-0.1-0.3-0.2-0.6-0.3-0.9c0-0.1,0-0.2-0.1-0.3l0,0c0-0.1-0.1-0.3-0.1-0.4
						c0-0.1,0-0.1,0-0.2v0c0,0,0-0.1,0-0.1c0-0.1,0-0.1,0-0.2v0l-0.1-0.8l0-0.1c0-0.1,0-0.1,0-0.2c0-0.1,0-0.3,0-0.4v0l-0.1-0.6
						c0-0.1,0-0.3,0-0.4c0-0.1,0-0.1,0-0.2v0c0-0.9,0.1-1.8,0.3-2.6l0,0l0.1-0.4c0-0.1,0-0.2,0.1-0.3l0.1-0.4c0,0,0-0.1,0-0.1
						l0.1-0.1c0.2-0.4,0.4-0.8,0.7-1.2l0,0l0.2-0.3c0.1-0.1,0.1-0.2,0.2-0.2c0,0,0,0,0.1-0.1l0.2-0.2l0.2-0.2c0,0,0.1-0.1,0.2-0.2
						l0.3-0.2c0.1,0,0.1-0.1,0.2-0.1l0.1,0c0.1-0.1,0.2-0.1,0.3-0.2l0.2-0.1c0,0,0.1,0,0.1-0.1l0.3-0.2l0.2-0.1
						c0.1,0,0.2-0.1,0.2-0.1l0,0l0.3-0.1c0.1,0,0.2-0.1,0.2-0.1c0,0,0.1,0,0.1,0h0c0.5-0.1,1-0.2,1.5-0.2l0.2,0l0.2,0
						c0.1,0,0.1,0,0.2,0l0.2,0l0.1,0c0.3,0,0.6,0.1,0.8,0.2v0c0.4,0.1,0.8,0.3,1.3,0.5c0.7,0.3,1.4,0.8,2.1,1.3
						c0.7,0.5,1.3,1,1.9,1.5c0,0,0,0,0.1,0.1c0,0,0,0,0-0.1c0.6-0.5,1.3-1.1,1.9-1.5c0.8-0.5,1.5-1,2.1-1.3c0.4-0.2,0.9-0.4,1.3-0.5
						l0,0c0.2,0,0.5-0.1,0.8-0.2l0.1,0l0.1,0c0,0,0.1,0,0.2,0h0.4c0.5,0,1,0.1,1.5,0.2l0,0c0,0,0.1,0,0.1,0c0.1,0,0.1,0,0.2,0.1l0,0
						l0.3,0.1c0.1,0,0.2,0.1,0.2,0.1l0.2,0.1l0.2,0.1c0,0,0.1,0,0.1,0.1l0.2,0.1c0.1,0,0.2,0.1,0.3,0.2l0.1,0c0.1,0,0.1,0.1,0.2,0.2
						l0,0l0.2,0.2c0.1,0.1,0.1,0.1,0.2,0.2l0.3,0.3l0.1,0.1c0,0,0,0,0,0.1c0,0.1,0.1,0.1,0.2,0.2l0,0l0.2,0.3
						c0.3,0.4,0.5,0.8,0.7,1.2l0.1,0.2c0,0,0,0.1,0,0.1l0,0.1l0.1,0.3c0,0.1,0.1,0.2,0.1,0.3l0.1,0.4c0.2,0.8,0.3,1.7,0.3,2.6l0,0
						v0.2c0,0.1,0,0.3,0,0.4v0l-0.1,0.6c0,0.1,0,0.3-0.1,0.4l0,0.2l0,0.2l-0.1,0.7c0,0.1,0,0.1,0,0.2c0,0,0,0.1,0,0.1v0
						c0,0.1,0,0.1,0,0.2c0,0.1-0.1,0.3-0.1,0.4l0,0c0,0.1,0,0.2-0.1,0.3c-0.1,0.3-0.2,0.6-0.3,0.8c0,0.1,0,0.1-0.1,0.2
						c0,0.1-0.1,0.2-0.1,0.4v0l-0.3,0.8l-0.3,0.8l-0.4,1l-0.4,1c-0.4,1.2-0.8,2.5-1.1,4.2c-0.1,0.6-0.3,1.1-0.4,1.7
						c0,0.2-0.1,0.3-0.1,0.5l-0.1,0.4c-0.1,0.6-0.2,1.2-0.3,1.8v0c-0.1,0.5-0.2,1-0.3,1.6c0,0.2-0.1,0.4-0.1,0.6l-0.2,1.1
						c-0.1,0.3-0.1,0.7-0.2,1.1c-0.2,1.5-0.5,3-0.7,4.4c-0.2,1.3-0.4,2.6-0.6,4.4c-0.1,0.7-0.2,1.5-0.3,2.2l-0.2,2.2
						c-0.1,0.6-0.2,1.5-0.3,2.6c-0.2,1.3-0.3,4-0.5,5.8h6.9l0.3-0.4c2-2.1,3.2-3.7,3.9-5.2c0.7-1.5,0.8-2.9,1-5
						c0.1-0.5,0.1-1.2,0.2-1.9c0.6-5.5,6.8-14.4,7-14.7c4-5.4,6.2-11.8,6.2-18.6C399.6,237,398.8,232.9,397.2,229z M374.6,263.9
						l0.2-1.1c0-0.2,0.1-0.4,0.1-0.6c0.1-0.5,0.2-1.1,0.3-1.6c0.1-0.6,0.2-1.2,0.4-1.8l0.1-0.4c0-0.2,0.1-0.3,0.1-0.5
						c0.1-0.6,0.2-1.2,0.4-1.7c0.4-1.7,0.8-3.1,1.2-4.4l0,0l0.4-1.1l0.4-1l0.3-0.8l0.3-0.8c0-0.1,0.1-0.2,0.1-0.3
						c0-0.1,0-0.1,0.1-0.2v0c0.1-0.2,0.2-0.5,0.2-0.7c0-0.1,0.1-0.2,0.1-0.3c0-0.1,0-0.2,0.1-0.3c0-0.1,0-0.1,0-0.2c0,0,0-0.1,0-0.1
						c0,0,0-0.1,0-0.1l0.1-0.7l0-0.1c0-0.1,0-0.1,0-0.2c0-0.1,0-0.2,0.1-0.3l0-0.5c0-0.1,0-0.2,0-0.3c0-0.1,0-0.1,0-0.2
						c0-0.7-0.1-1.4-0.2-2l-0.1-0.3c0,0,0-0.1,0-0.1c0,0,0-0.1,0-0.1l0,0l-0.1-0.3l-0.1-0.2c-0.1-0.3-0.3-0.5-0.5-0.8l-0.2-0.2
						c0,0,0-0.1-0.1-0.1c0,0,0-0.1-0.1-0.1l-0.1-0.1l-0.2-0.2c0,0,0,0,0,0l0,0l-0.2-0.2c0,0-0.1-0.1-0.1-0.1c0,0,0,0-0.1-0.1l0,0
						c0,0-0.1-0.1-0.1-0.1c0,0,0,0-0.1,0l-0.1-0.1c0,0,0,0,0,0c0,0,0,0,0,0l-0.2-0.1l-0.1,0c0,0-0.1,0-0.1-0.1l-0.2-0.1
						c0,0-0.1,0-0.1,0c0,0-0.1,0-0.1,0c-0.3-0.1-0.6-0.1-0.9-0.1h-0.2c0,0,0,0,0,0h-0.1l-0.1,0c-0.1,0-0.3,0-0.5,0.1
						c-0.3,0.1-0.6,0.2-0.9,0.4c-0.6,0.3-1.2,0.6-1.8,1.1c-0.5,0.4-1.1,0.8-1.7,1.3c0,0,0,0,0,0c0.6,0.7,1.1,1.3,1.5,2
						c0.3,0.4,0.5,0.8,0.7,1.2l0,0.1c0,0.1,0.1,0.2,0.1,0.2l0.1,0.2l0.1,0.1c0,0.1,0.1,0.2,0.1,0.3l0,0.1c0,0,0,0.1,0,0.2l0,0.1
						c0,0,0,0.1,0,0.2c0.1,0.3,0.1,0.5,0.1,0.8c0,0.3,0,0.7-0.1,1l0,0.1c0,0.1,0,0.1-0.1,0.2v0c0,0.1,0,0.1-0.1,0.2l0,0.1
						c0,0.1-0.1,0.1-0.1,0.2l0,0c0,0.1-0.1,0.2-0.1,0.2l0,0.1c-0.2,0.3-0.5,0.6-0.7,0.8c-0.1,0-0.1,0.1-0.2,0.1l-0.2,0.1l-0.1,0.1
						c-0.2,0.1-0.3,0.2-0.5,0.2c-0.2,0.1-0.5,0.1-0.8,0.2c-0.5,0.1-0.9,0.1-1.4,0.1c-0.5,0-1,0-1.4-0.1c-0.3-0.1-0.6-0.1-0.8-0.2
						c-0.2-0.1-0.3-0.1-0.5-0.2l-0.1-0.1l-0.2-0.1c0,0-0.1-0.1-0.2-0.1c-0.3-0.2-0.5-0.5-0.7-0.8l0-0.1c0,0-0.1-0.1-0.1-0.2l0,0
						c0-0.1-0.1-0.1-0.1-0.2l0-0.1c0-0.1,0-0.1-0.1-0.2l0,0c0-0.1,0-0.1-0.1-0.2l0-0.1c-0.1-0.3-0.1-0.6-0.1-1c0-0.1,0-0.1,0-0.2
						l0-0.2c0,0,0-0.1,0-0.1l0-0.1c0,0,0-0.1,0-0.1l0,0l0-0.1c0-0.1,0-0.2,0.1-0.2l0-0.1c0,0,0-0.1,0-0.2l0-0.1c0-0.1,0-0.2,0.1-0.3
						l0.1-0.2l0-0.1c0-0.1,0.1-0.2,0.1-0.2l0-0.1c0.2-0.4,0.4-0.8,0.7-1.1c0.4-0.7,0.9-1.3,1.5-2c0,0,0,0,0,0
						c-0.5-0.5-1.1-0.9-1.7-1.3c-0.6-0.5-1.2-0.8-1.8-1.1c-0.3-0.2-0.6-0.3-0.9-0.4c-0.2,0-0.3-0.1-0.4-0.1l-0.1,0c0,0,0,0-0.1,0
						h-0.3c-0.3,0-0.6,0.1-0.9,0.2c0,0-0.1,0-0.1,0c0,0-0.1,0-0.1,0l-0.2,0.1c0,0-0.1,0-0.1,0.1l-0.2,0.1l-0.1,0.1c0,0,0,0,0,0
						c0,0,0,0,0,0l-0.1,0.1c0,0,0,0-0.1,0c0,0-0.1,0-0.1,0.1l0,0c0,0-0.1,0-0.1,0.1c0,0-0.1,0.1-0.1,0.1l-0.2,0.2l-0.2,0.2l-0.1,0.1
						c0,0,0,0.1-0.1,0.1c0,0-0.1,0.1-0.1,0.1l-0.2,0.2c-0.2,0.3-0.4,0.6-0.5,0.8l-0.1,0.2l0,0.1l-0.1,0.3c0,0,0,0.1,0,0.1
						c0,0,0,0,0,0.1l-0.1,0.3c-0.1,0.6-0.2,1.3-0.2,2c0,0.1,0,0.1,0,0.2c0,0.1,0,0.2,0,0.3l0,0.5c0,0.1,0,0.2,0,0.3
						c0,0.1,0,0.1,0,0.2l0,0.1l0.1,0.7c0,0,0,0.1,0,0.1c0,0,0,0.1,0,0.1c0,0.1,0,0.1,0,0.2c0,0.1,0,0.2,0.1,0.3c0,0.1,0,0.2,0.1,0.3
						c0.1,0.3,0.1,0.5,0.2,0.7l0,0c0,0.1,0,0.1,0.1,0.2c0,0.1,0.1,0.2,0.1,0.3l0.3,0.8l0.3,0.8l0.4,1.1l0.4,1.1
						c0.4,1.3,0.8,2.7,1.2,4.4c0.1,0.6,0.3,1.2,0.4,1.8c0,0.2,0.1,0.3,0.1,0.4v0l0.1,0.4c0.1,0.6,0.2,1.2,0.3,1.8
						c0.1,0.5,0.2,1.1,0.3,1.6c0,0.2,0.1,0.4,0.1,0.6v0l0.2,1.1c0.1,0.3,0.1,0.7,0.2,1.1c0.2,1.3,0.4,2.8,0.6,4.4l0.2,1.1l0.1,1.1
						c0,0.3,0.1,0.7,0.1,1.1l0.1,1.1c0.2,1.6,0.4,3.1,0.5,4.5c0.1,1.2,0.2,2.1,0.4,3c0.1,0.9,0.2,4.1,0.4,5.6h6.9
						c0.1-1.5,0.3-4.9,0.4-6.1c0.1-1,0.3-2,0.3-2.6l0.2-2.2c0.1-0.8,0.2-1.5,0.3-2.2c0.2-1.8,0.4-3.2,0.6-4.5
						c0.2-1.4,0.4-2.9,0.7-4.4C374.4,264.6,374.5,264.2,374.6,263.9z M366.7,244.9c0,0.1,0,0.1-0.1,0.1l-0.1,0.3c0,0,0,0.1,0,0.1
						c0,0,0,0.1,0,0.1c0,0,0,0,0,0.1l0,0.1c0,0,0,0,0,0.1l0,0.1c0,0,0,0,0,0.1l0,0.1v0.1l0,0v0c0,0.1,0,0.2,0,0.4l0,0.1
						c0,0,0,0.1,0,0.1c0,0,0,0.1,0,0.1c0,0,0,0,0,0c0,0,0,0,0,0c0.1,0.1,0.2,0.2,0.2,0.2l0,0c0,0,0,0,0,0c0,0,0,0,0,0l0.1,0
						c0,0,0.1,0,0.1,0.1c0.1,0,0.3,0.1,0.5,0.1c0.3,0.1,0.6,0.1,1,0.1c0.4,0,0.7,0,1-0.1c0.2,0,0.3-0.1,0.4-0.1c0.1,0,0.1,0,0.2-0.1
						l0.1,0c0,0,0,0,0.1,0c0,0,0,0,0,0l0,0c0.1-0.1,0.2-0.2,0.2-0.2c0,0,0,0,0,0s0,0,0,0c0,0,0-0.1,0.1-0.1c0,0,0,0,0-0.1l0,0l0-0.1
						c0-0.1,0-0.2,0-0.4c0-0.2,0-0.3-0.1-0.4l0,0c0,0,0,0,0,0l0-0.1c0,0,0,0,0-0.1c0,0,0,0,0-0.1c0-0.1,0-0.1,0-0.1l-0.1-0.3
						c0,0,0-0.1-0.1-0.1l0-0.1c-0.1-0.3-0.3-0.6-0.5-0.9c-0.4-0.5-0.8-1.1-1.3-1.6c-0.5,0.6-0.9,1.1-1.3,1.7
						C367,244.3,366.8,244.6,366.7,244.9L366.7,244.9z"/>
				</g>
				<path class="st5" d="M360.4,302.7h16.1C376.5,302.7,368.5,309.9,360.4,302.7z"/>
			</g>
			<g>
				<path class="st5" d="M368.5,192.2c-0.8,0-1.4,0.6-1.4,1.4V206c0,0.8,0.6,1.4,1.4,1.4c0.8,0,1.4-0.6,1.4-1.4v-12.4
					C369.9,192.8,369.2,192.2,368.5,192.2z"/>
				<path class="st5" d="M393.3,204c-0.3-0.2-0.7-0.2-1.1-0.2c-0.4,0.1-0.7,0.3-0.9,0.6l-3.9,6.5c-0.4,0.7-0.2,1.5,0.5,1.9
					c0.2,0.1,0.5,0.2,0.7,0.2c0.5,0,0.9-0.3,1.2-0.7l3.9-6.5C394.2,205.3,394,204.4,393.3,204z"/>
				<path class="st5" d="M415.3,220.6c-0.2-0.3-0.5-0.6-0.8-0.7c-0.4-0.1-0.7-0.1-1.1,0.1l-11,5.8c-0.3,0.2-0.6,0.5-0.7,0.8
					c-0.1,0.4-0.1,0.7,0.1,1.1c0.2,0.5,0.7,0.7,1.2,0.7c0.2,0,0.5-0.1,0.7-0.2l11-5.8C415.4,222.1,415.6,221.2,415.3,220.6z"/>
				<path class="st5" d="M349.5,211l-3.9-6.5c-0.2-0.3-0.5-0.5-0.9-0.6c-0.4-0.1-0.7,0-1.1,0.2c-0.7,0.4-0.9,1.3-0.5,1.9l3.9,6.5
					c0.3,0.4,0.7,0.7,1.2,0.7c0.3,0,0.5-0.1,0.7-0.2C349.7,212.5,349.9,211.6,349.5,211z"/>
				<path class="st5" d="M335.2,226.6c-0.1-0.4-0.4-0.6-0.7-0.8l-11-5.8c-0.3-0.2-0.7-0.2-1.1-0.1c-0.4,0.1-0.6,0.4-0.8,0.7
					c-0.2,0.3-0.2,0.7-0.1,1.1c0.1,0.4,0.4,0.6,0.7,0.8l11,5.8c0.2,0.1,0.4,0.2,0.7,0.2c0.5,0,1-0.3,1.2-0.7
					C335.3,227.3,335.4,226.9,335.2,226.6z"/>
			</g>
		</g>
		<g>
			<g>
				<path class="st5" d="M380.5,291.1h-23.9c-0.8,0-1.5-0.7-1.5-1.5s0.7-1.5,1.5-1.5h23.9c0.8,0,1.5,0.7,1.5,1.5
					S381.3,291.1,380.5,291.1z"/>
			</g>
			<g>
				<path class="st5" d="M379.7,296.1h-22.4c-0.8,0-1.5-0.7-1.5-1.5s0.7-1.5,1.5-1.5h22.4c0.8,0,1.5,0.7,1.5,1.5
					S380.5,296.1,379.7,296.1z"/>
			</g>
			<g>
				<path class="st5" d="M378.9,301H358c-0.8,0-1.5-0.7-1.5-1.5s0.7-1.5,1.5-1.5h20.9c0.8,0,1.5,0.7,1.5,1.5S379.8,301,378.9,301z"
					/>
			</g>
		</g>
	</g>
	<g class="st2">
		<g>
			<g>
				<g>
					<path class="st5" d="M352.6,89c-1.6-3.7-3.8-7-6.7-9.9c-2.9-2.9-6.2-5.1-9.9-6.7c-3.8-1.6-7.9-2.4-12.1-2.4s-8.3,0.8-12.1,2.4
						c-3.7,1.6-7,3.8-9.9,6.7c-2.8,2.9-5.1,6.2-6.7,9.9c-1.6,3.8-2.4,7.9-2.4,12.1c0,6.8,2.1,13.2,6.2,18.6c0.2,0.3,6.5,9.2,7,14.7
						c0.1,0.7,0.1,1.3,0.2,1.9c0.2,2.1,0.3,3.6,1,5c0.7,1.5,2,3.1,3.9,5.2l0.3,0.4h6.7c-0.1-1.9-0.2-4.4-0.4-5.3
						c-0.1-0.9-0.2-1.9-0.4-3c-0.1-1.3-0.3-2.9-0.5-4.4l-0.1-1.1c0-0.4-0.1-0.8-0.1-1.1l-0.1-1.1l-0.2-1.1c-0.2-1.6-0.4-3.1-0.7-4.4
						c-0.1-0.4-0.1-0.8-0.2-1.1l-0.2-1.1c0-0.2-0.1-0.4-0.1-0.6c-0.1-0.5-0.2-1-0.3-1.6v0c-0.1-0.6-0.2-1.2-0.3-1.8l-0.1-0.4
						c0-0.2-0.1-0.3-0.1-0.4c-0.1-0.6-0.2-1.2-0.4-1.7c-0.4-1.7-0.8-3-1.1-4.2l-0.3-1l-0.4-1l-0.3-0.8l-0.3-0.8
						c0-0.1-0.1-0.3-0.1-0.4c0-0.1,0-0.1-0.1-0.2c-0.1-0.3-0.2-0.6-0.3-0.9c0-0.1,0-0.2-0.1-0.3l0,0c0-0.1-0.1-0.3-0.1-0.4
						c0-0.1,0-0.1,0-0.2v0c0,0,0-0.1,0-0.1c0-0.1,0-0.1,0-0.2v0l-0.1-0.8l0-0.1c0-0.1,0-0.1,0-0.2c0-0.1,0-0.3,0-0.4v0l-0.1-0.6
						c0-0.1,0-0.3,0-0.4c0-0.1,0-0.1,0-0.2v0c0-0.9,0.1-1.8,0.3-2.6l0,0l0.1-0.4c0-0.1,0-0.2,0.1-0.3l0.1-0.4c0,0,0-0.1,0-0.1
						l0.1-0.1c0.2-0.4,0.4-0.8,0.7-1.2l0,0l0.2-0.3c0.1-0.1,0.1-0.2,0.2-0.2c0,0,0,0,0.1-0.1l0.2-0.2l0.2-0.2c0,0,0.1-0.1,0.2-0.2
						l0.3-0.2c0.1,0,0.1-0.1,0.2-0.1l0.1,0c0.1-0.1,0.2-0.1,0.3-0.2l0.2-0.1c0,0,0.1,0,0.1-0.1l0.3-0.2l0.2-0.1
						c0.1,0,0.2-0.1,0.2-0.1l0,0l0.3-0.1c0.1,0,0.2-0.1,0.2-0.1c0,0,0.1,0,0.1,0h0c0.5-0.1,1-0.2,1.5-0.2l0.2,0l0.2,0
						c0.1,0,0.1,0,0.2,0l0.2,0l0.1,0c0.3,0,0.6,0.1,0.8,0.2v0c0.4,0.1,0.8,0.3,1.3,0.5c0.7,0.3,1.4,0.8,2.1,1.3
						c0.7,0.5,1.3,1,1.9,1.5c0,0,0,0,0.1,0.1c0,0,0,0,0-0.1c0.6-0.5,1.3-1.1,1.9-1.5c0.8-0.5,1.5-1,2.1-1.3c0.4-0.2,0.9-0.4,1.3-0.5
						l0,0c0.2,0,0.5-0.1,0.8-0.2l0.1,0l0.1,0c0,0,0.1,0,0.2,0h0.4c0.5,0,1,0.1,1.5,0.2l0,0c0,0,0.1,0,0.1,0c0.1,0,0.1,0,0.2,0.1l0,0
						l0.3,0.1c0.1,0,0.2,0.1,0.2,0.1l0.2,0.1l0.2,0.1c0,0,0.1,0,0.1,0.1l0.2,0.1c0.1,0,0.2,0.1,0.3,0.2l0.1,0c0.1,0,0.1,0.1,0.2,0.2
						l0,0l0.2,0.2c0.1,0.1,0.1,0.1,0.2,0.2l0.3,0.3l0.1,0.1c0,0,0,0,0,0.1c0,0.1,0.1,0.1,0.2,0.2l0,0l0.2,0.3
						c0.3,0.4,0.5,0.8,0.7,1.2l0.1,0.2c0,0,0,0.1,0,0.1l0,0.1l0.1,0.3c0,0.1,0.1,0.2,0.1,0.3l0.1,0.4c0.2,0.8,0.3,1.7,0.3,2.6l0,0
						v0.2c0,0.1,0,0.3,0,0.4v0l-0.1,0.6c0,0.1,0,0.3-0.1,0.4l0,0.2l0,0.2l-0.1,0.7c0,0.1,0,0.1,0,0.2c0,0,0,0.1,0,0.1v0
						c0,0.1,0,0.1,0,0.2c0,0.1-0.1,0.3-0.1,0.4l0,0c0,0.1,0,0.2-0.1,0.3c-0.1,0.3-0.2,0.6-0.3,0.8c0,0.1,0,0.1-0.1,0.2
						c0,0.1-0.1,0.2-0.1,0.4v0l-0.3,0.8l-0.3,0.8l-0.4,1l-0.4,1c-0.4,1.2-0.8,2.5-1.1,4.2c-0.1,0.6-0.3,1.1-0.4,1.7
						c0,0.2-0.1,0.3-0.1,0.5l-0.1,0.4c-0.1,0.6-0.2,1.2-0.3,1.8v0c-0.1,0.5-0.2,1-0.3,1.6c0,0.2-0.1,0.4-0.1,0.6l-0.2,1.1
						c-0.1,0.3-0.1,0.7-0.2,1.1c-0.2,1.5-0.5,3-0.7,4.4c-0.2,1.3-0.4,2.6-0.6,4.4c-0.1,0.7-0.2,1.5-0.3,2.2l-0.2,2.2
						c-0.1,0.6-0.2,1.5-0.3,2.6c-0.2,1.3-0.3,4-0.5,5.8h6.9l0.3-0.4c2-2.1,3.2-3.7,3.9-5.2c0.7-1.5,0.8-2.9,1-5
						c0.1-0.5,0.1-1.2,0.2-1.9c0.6-5.5,6.8-14.4,7-14.7c4-5.4,6.2-11.8,6.2-18.6C355.1,97,354.2,92.9,352.6,89z M330,123.9l0.2-1.1
						c0-0.2,0.1-0.4,0.1-0.6c0.1-0.5,0.2-1.1,0.3-1.6c0.1-0.6,0.2-1.2,0.4-1.8l0.1-0.4c0-0.2,0.1-0.3,0.1-0.5
						c0.1-0.6,0.2-1.2,0.4-1.7c0.4-1.7,0.8-3.1,1.2-4.4l0,0l0.4-1.1l0.4-1l0.3-0.8l0.3-0.8c0-0.1,0.1-0.2,0.1-0.3
						c0-0.1,0-0.1,0.1-0.2v0c0.1-0.2,0.2-0.5,0.2-0.7c0-0.1,0.1-0.2,0.1-0.3c0-0.1,0-0.2,0.1-0.3c0-0.1,0-0.1,0-0.2c0,0,0-0.1,0-0.1
						c0,0,0-0.1,0-0.1l0.1-0.7l0-0.1c0-0.1,0-0.1,0-0.2c0-0.1,0-0.2,0.1-0.3l0-0.5c0-0.1,0-0.2,0-0.3c0-0.1,0-0.1,0-0.2
						c0-0.7-0.1-1.4-0.2-2l-0.1-0.3c0,0,0-0.1,0-0.1c0,0,0-0.1,0-0.1l0,0l-0.1-0.3l-0.1-0.2c-0.1-0.3-0.3-0.5-0.5-0.8l-0.2-0.2
						c0,0,0-0.1-0.1-0.1c0,0,0-0.1-0.1-0.1l-0.1-0.1l-0.2-0.2c0,0,0,0,0,0l0,0l-0.2-0.2c0,0-0.1-0.1-0.1-0.1c0,0,0,0-0.1-0.1l0,0
						c0,0-0.1-0.1-0.1-0.1c0,0,0,0-0.1,0l-0.1-0.1c0,0,0,0,0,0c0,0,0,0,0,0l-0.2-0.1l-0.1,0c0,0-0.1,0-0.1-0.1L332,98
						c0,0-0.1,0-0.1,0c0,0-0.1,0-0.1,0c-0.3-0.1-0.6-0.1-0.9-0.1h-0.2c0,0,0,0,0,0h-0.1l-0.1,0c-0.1,0-0.3,0-0.5,0.1
						c-0.3,0.1-0.6,0.2-0.9,0.4c-0.6,0.3-1.2,0.6-1.8,1.1c-0.5,0.4-1.1,0.8-1.7,1.3c0,0,0,0,0,0c0.6,0.7,1.1,1.3,1.5,2
						c0.3,0.4,0.5,0.8,0.7,1.2l0,0.1c0,0.1,0.1,0.2,0.1,0.2l0.1,0.2l0.1,0.1c0,0.1,0.1,0.2,0.1,0.3l0,0.1c0,0,0,0.1,0,0.2l0,0.1
						c0,0,0,0.1,0,0.2c0.1,0.3,0.1,0.5,0.1,0.8c0,0.3,0,0.7-0.1,1l0,0.1c0,0.1,0,0.1-0.1,0.2v0c0,0.1,0,0.1-0.1,0.2l0,0.1
						c0,0.1-0.1,0.1-0.1,0.2l0,0c0,0.1-0.1,0.2-0.1,0.2l0,0.1c-0.2,0.3-0.5,0.6-0.7,0.8c-0.1,0-0.1,0.1-0.2,0.1l-0.2,0.1l-0.1,0.1
						c-0.2,0.1-0.3,0.2-0.5,0.2c-0.2,0.1-0.5,0.1-0.8,0.2c-0.5,0.1-0.9,0.1-1.4,0.1c-0.5,0-1,0-1.4-0.1c-0.3-0.1-0.6-0.1-0.8-0.2
						c-0.2-0.1-0.3-0.1-0.5-0.2l-0.1-0.1l-0.2-0.1c0,0-0.1-0.1-0.2-0.1c-0.3-0.2-0.5-0.5-0.7-0.8l0-0.1c0,0-0.1-0.1-0.1-0.2l0,0
						c0-0.1-0.1-0.1-0.1-0.2l0-0.1c0-0.1,0-0.1-0.1-0.2l0,0c0-0.1,0-0.1-0.1-0.2l0-0.1c-0.1-0.3-0.1-0.6-0.1-1c0-0.1,0-0.1,0-0.2
						l0-0.2c0,0,0-0.1,0-0.1l0-0.1c0,0,0-0.1,0-0.1l0,0l0-0.1c0-0.1,0-0.2,0.1-0.2l0-0.1c0,0,0-0.1,0-0.2l0-0.1c0-0.1,0-0.2,0.1-0.3
						l0.1-0.2l0-0.1c0-0.1,0.1-0.2,0.1-0.2l0-0.1c0.2-0.4,0.4-0.8,0.7-1.1c0.4-0.7,0.9-1.3,1.5-2c0,0,0,0,0,0
						c-0.5-0.5-1.1-0.9-1.7-1.3c-0.6-0.5-1.2-0.8-1.8-1.1c-0.3-0.2-0.6-0.3-0.9-0.4c-0.2,0-0.3-0.1-0.4-0.1l-0.1,0c0,0,0,0-0.1,0
						H317c-0.3,0-0.6,0.1-0.9,0.2c0,0-0.1,0-0.1,0c0,0-0.1,0-0.1,0l-0.2,0.1c0,0-0.1,0-0.1,0.1l-0.2,0.1l-0.1,0.1c0,0,0,0,0,0
						c0,0,0,0,0,0l-0.1,0.1c0,0,0,0-0.1,0c0,0-0.1,0-0.1,0.1l0,0c0,0-0.1,0-0.1,0.1c0,0-0.1,0.1-0.1,0.1l-0.2,0.2l-0.2,0.2l-0.1,0.1
						c0,0,0,0.1-0.1,0.1c0,0-0.1,0.1-0.1,0.1l-0.2,0.2c-0.2,0.3-0.4,0.6-0.5,0.8l-0.1,0.2l0,0.1l-0.1,0.3c0,0,0,0.1,0,0.1
						c0,0,0,0,0,0.1l-0.1,0.3c-0.1,0.6-0.2,1.3-0.2,2c0,0.1,0,0.1,0,0.2c0,0.1,0,0.2,0,0.3l0,0.5c0,0.1,0,0.2,0,0.3
						c0,0.1,0,0.1,0,0.2l0,0.1l0.1,0.7c0,0,0,0.1,0,0.1c0,0,0,0.1,0,0.1c0,0.1,0,0.1,0,0.2c0,0.1,0,0.2,0.1,0.3c0,0.1,0,0.2,0.1,0.3
						c0.1,0.3,0.1,0.5,0.2,0.7l0,0c0,0.1,0,0.1,0.1,0.2c0,0.1,0.1,0.2,0.1,0.3l0.3,0.8l0.3,0.8l0.4,1.1l0.4,1.1
						c0.4,1.3,0.8,2.7,1.2,4.4c0.1,0.6,0.3,1.2,0.4,1.8c0,0.2,0.1,0.3,0.1,0.4v0l0.1,0.4c0.1,0.6,0.2,1.2,0.3,1.8
						c0.1,0.5,0.2,1.1,0.3,1.6c0,0.2,0.1,0.4,0.1,0.6v0l0.2,1.1c0.1,0.3,0.1,0.7,0.2,1.1c0.2,1.3,0.4,2.8,0.6,4.4l0.2,1.1l0.1,1.1
						c0,0.3,0.1,0.7,0.1,1.1l0.1,1.1c0.2,1.6,0.4,3.1,0.5,4.5c0.1,1.2,0.2,2.1,0.4,3c0.1,0.9,0.2,4.1,0.4,5.6h6.9
						c0.1-1.5,0.3-4.9,0.4-6.1c0.1-1,0.3-2,0.3-2.6l0.2-2.2c0.1-0.8,0.2-1.5,0.3-2.2c0.2-1.8,0.4-3.2,0.6-4.5
						c0.2-1.4,0.4-2.9,0.7-4.4C329.9,124.6,330,124.2,330,123.9z M322.1,104.9c0,0.1,0,0.1-0.1,0.1l-0.1,0.3c0,0,0,0.1,0,0.1
						c0,0,0,0.1,0,0.1c0,0,0,0,0,0.1l0,0.1c0,0,0,0,0,0.1l0,0.1c0,0,0,0,0,0.1l0,0.1v0.1l0,0v0c0,0.1,0,0.2,0,0.4l0,0.1
						c0,0,0,0.1,0,0.1c0,0,0,0.1,0,0.1c0,0,0,0,0,0c0,0,0,0,0,0c0.1,0.1,0.2,0.2,0.2,0.2l0,0c0,0,0,0,0,0c0,0,0,0,0,0l0.1,0
						c0,0,0.1,0,0.1,0.1c0.1,0,0.3,0.1,0.5,0.1c0.3,0.1,0.6,0.1,1,0.1c0.4,0,0.7,0,1-0.1c0.2,0,0.3-0.1,0.4-0.1c0.1,0,0.1,0,0.2-0.1
						l0.1,0c0,0,0,0,0.1,0c0,0,0,0,0,0l0,0c0.1-0.1,0.2-0.2,0.2-0.2c0,0,0,0,0,0s0,0,0,0c0,0,0-0.1,0.1-0.1c0,0,0,0,0-0.1l0,0l0-0.1
						c0-0.1,0-0.2,0-0.4c0-0.2,0-0.3-0.1-0.4l0,0c0,0,0,0,0,0l0-0.1c0,0,0,0,0-0.1c0,0,0,0,0-0.1c0-0.1,0-0.1,0-0.1l-0.1-0.3
						c0,0,0-0.1-0.1-0.1l0-0.1c-0.1-0.3-0.3-0.6-0.5-0.9c-0.4-0.5-0.8-1.1-1.3-1.6c-0.5,0.6-0.9,1.1-1.3,1.7
						C322.5,104.3,322.3,104.6,322.1,104.9L322.1,104.9z"/>
				</g>
				<path class="st5" d="M315.9,162.7H332C332,162.7,324,169.9,315.9,162.7z"/>
			</g>
			<g>
				<path class="st5" d="M323.9,52.2c-0.8,0-1.4,0.6-1.4,1.4V66c0,0.8,0.6,1.4,1.4,1.4c0.8,0,1.4-0.6,1.4-1.4V53.6
					C325.3,52.8,324.7,52.2,323.9,52.2z"/>
				<path class="st5" d="M348.8,64c-0.3-0.2-0.7-0.2-1.1-0.2c-0.4,0.1-0.7,0.3-0.9,0.6l-3.9,6.5c-0.4,0.7-0.2,1.5,0.5,1.9
					c0.2,0.1,0.5,0.2,0.7,0.2c0.5,0,0.9-0.3,1.2-0.7l3.9-6.5C349.7,65.3,349.4,64.4,348.8,64z"/>
				<path class="st5" d="M370.7,80.6c-0.2-0.3-0.5-0.6-0.8-0.7c-0.4-0.1-0.7-0.1-1.1,0.1l-11,5.8c-0.3,0.2-0.6,0.5-0.7,0.8
					c-0.1,0.4-0.1,0.7,0.1,1.1c0.2,0.5,0.7,0.7,1.2,0.7c0.2,0,0.5-0.1,0.7-0.2l11-5.8C370.8,82.1,371.1,81.2,370.7,80.6z"/>
				<path class="st5" d="M304.9,71l-3.9-6.5c-0.2-0.3-0.5-0.5-0.9-0.6c-0.4-0.1-0.7,0-1.1,0.2c-0.7,0.4-0.9,1.3-0.5,1.9l3.9,6.5
					c0.3,0.4,0.7,0.7,1.2,0.7c0.3,0,0.5-0.1,0.7-0.2C305.1,72.5,305.3,71.6,304.9,71z"/>
				<path class="st5" d="M290.7,86.6c-0.1-0.4-0.4-0.6-0.7-0.8L279,80c-0.3-0.2-0.7-0.2-1.1-0.1c-0.4,0.1-0.6,0.4-0.8,0.7
					c-0.2,0.3-0.2,0.7-0.1,1.1s0.4,0.6,0.7,0.8l11,5.8c0.2,0.1,0.4,0.2,0.7,0.2c0.5,0,1-0.3,1.2-0.7
					C290.8,87.3,290.8,86.9,290.7,86.6z"/>
			</g>
		</g>
		<g>
			<g>
				<path class="st5" d="M335.9,151.1H312c-0.8,0-1.5-0.7-1.5-1.5c0-0.8,0.7-1.5,1.5-1.5h23.9c0.8,0,1.5,0.7,1.5,1.5
					C337.4,150.5,336.7,151.1,335.9,151.1z"/>
			</g>
			<g>
				<path class="st5" d="M335.2,156.1h-22.4c-0.8,0-1.5-0.7-1.5-1.5s0.7-1.5,1.5-1.5h22.4c0.8,0,1.5,0.7,1.5,1.5
					S336,156.1,335.2,156.1z"/>
			</g>
			<g>
				<path class="st5" d="M334.4,161h-20.9c-0.8,0-1.5-0.7-1.5-1.5s0.7-1.5,1.5-1.5h20.9c0.8,0,1.5,0.7,1.5,1.5S335.2,161,334.4,161z
					"/>
			</g>
		</g>
	</g>
</g>
<g id="Werbe_Entdecker" class="st1">
	<g>
		<g class="st2">
			<g>
				<g>
					<path class="st5" d="M245,184.2L217.8,71.4l-27.2,112.7L77.8,211.4l112.7,27.2l27.2,112.7L245,238.6l112.7-27.2L245,184.2z
						 M99.2,211.4l96.5-19.8l16.8,19.8H99.2z M217.8,329.9L198,233.4l19.8-16.8V329.9z M217.8,92.8l19.8,96.5l-19.8,16.8V92.8z
						 M239.8,231.2L223,211.4h113.4L239.8,231.2z"/>
				</g>
				<g>
					<g>
						<polygon class="st5" points="249.3,179.9 249.3,179.9 280.6,148.5 258.5,182.1 263.8,183.4 292,137.2 245.8,165.4 						"/>
					</g>
					<g>
						<polygon class="st5" points="186.3,179.9 154.9,148.5 188.5,170.7 189.8,165.4 143.6,137.2 171.8,183.4 						"/>
					</g>
					<g>
						<polygon class="st5" points="186.3,242.9 186.3,242.9 154.9,274.2 177.1,240.7 171.8,239.4 143.6,285.6 189.8,257.4 						"/>
					</g>
					<g>
						<polygon class="st5" points="249.3,242.9 280.6,274.2 247.1,252.1 245.8,257.4 292,285.6 263.8,239.4 						"/>
					</g>
				</g>
			</g>
			<g>
				<path class="st5" d="M229.3,102.7c51.1,5.4,91.8,46.1,97.2,97.2l6.5,1.6c-4.8-55.9-49.4-100.6-105.3-105.3L229.3,102.7z"/>
				<path class="st5" d="M109.1,199.9c5.4-51.1,46.1-91.8,97.2-97.2l1.6-6.5c-55.9,4.8-100.6,49.4-105.3,105.3L109.1,199.9z"/>
				<path class="st5" d="M326.4,222.9c-5.4,51.1-46.1,91.8-97.2,97.2l-1.6,6.5c55.9-4.8,100.6-49.4,105.3-105.3L326.4,222.9z"/>
				<path class="st5" d="M206.3,320c-51.1-5.4-91.8-46.1-97.2-97.2l-6.5-1.6c4.8,55.9,49.4,100.6,105.3,105.3L206.3,320z"/>
			</g>
			<g>
				<g>
					<path class="st5" d="M245,184.2L217.8,71.4l-27.2,112.7L77.8,211.4l112.7,27.2l27.2,112.7L245,238.6l112.7-27.2L245,184.2z
						 M99.2,211.4l96.5-19.8l16.8,19.8H99.2z M217.8,329.9L198,233.4l19.8-16.8V329.9z M217.8,92.8l19.8,96.5l-19.8,16.8V92.8z
						 M239.8,231.2L223,211.4h113.4L239.8,231.2z"/>
				</g>
				<g>
					<g>
						<polygon class="st5" points="249.3,179.9 249.3,179.9 280.6,148.5 258.5,182.1 263.8,183.4 292,137.2 245.8,165.4 						"/>
					</g>
					<g>
						<polygon class="st5" points="186.3,179.9 154.9,148.5 188.5,170.7 189.8,165.4 143.6,137.2 171.8,183.4 						"/>
					</g>
					<g>
						<polygon class="st5" points="186.3,242.9 186.3,242.9 154.9,274.2 177.1,240.7 171.8,239.4 143.6,285.6 189.8,257.4 						"/>
					</g>
					<g>
						<polygon class="st5" points="249.3,242.9 280.6,274.2 247.1,252.1 245.8,257.4 292,285.6 263.8,239.4 						"/>
					</g>
				</g>
			</g>
		</g>
		<g class="st2">
			<path class="st5" d="M205,50.1V19.6h7.2c4,7,11.9,20.3,13.4,23.6h0.1c-0.3-3.4-0.3-8.6-0.3-13.6v-10h5.2v30.5h-6.8
				c-3.5-6.2-12.1-21.1-13.7-24.6H210c0.2,2.9,0.3,8.8,0.3,14.3v10.3H205z"/>
		</g>
		<g class="st2">
			<path class="st5" d="M211.5,394.8c0.7,3.3,3,4.8,6.9,4.8c3.9,0,5.6-1.7,5.6-4.1c0-2.7-1.5-4-7-5.3c-7.9-1.9-10.1-4.7-10.1-8.9
				c0-5.1,3.8-8.7,10.8-8.7c7.8,0,11,4.3,11.4,8.6h-5.8c-0.4-2.2-1.7-4.3-5.8-4.3c-3,0-4.8,1.3-4.8,3.7c0,2.4,1.4,3.3,6.5,4.5
				c8.8,2.1,10.6,5.4,10.6,9.6c0,5.3-4,9.2-11.9,9.2c-7.7,0-11.5-3.9-12.2-9.2H211.5z"/>
		</g>
		<g class="st2">
			<path class="st5" d="M25,226.6L17,196.1h6.1c2.7,12.6,4.7,21.1,5.1,24.5h0c1-5,4.4-16.9,6.3-24.5h5.2c1.7,6.2,5.1,19.3,6,24.2h0
				c1-6.2,4.4-18.9,5.7-24.2h5.6l-8.5,30.5h-6c-1.7-6.8-4.8-18.3-5.8-23h0c-1,5.1-4.2,16.6-5.9,23H25z"/>
		</g>
		<g class="st2">
			<path class="st5" d="M399.4,213.1h-14.8v8.8h15.6l0,4.7h-21.2v-30.5h21v4.7h-15.5v7.5h14.8V213.1z"/>
		</g>
	</g>
	<g class="st2">
		<path class="st6" d="M288.4,57.2c-24.5,0-44.4,19.9-44.4,44.4c0,24.5,19.9,44.4,44.4,44.4s44.4-19.9,44.4-44.4
			C332.8,77.1,312.9,57.2,288.4,57.2z M292.2,143l-3.8-6.2l-3.8,6.2c-19.9-1.8-35.8-17.7-37.6-37.6l6.2-3.8l-6.2-3.8
			c1.8-19.9,17.7-35.8,37.6-37.6l3.8,6.2l3.8-6.2c19.9,1.8,35.8,17.7,37.6,37.6l-6.2,3.8l6.2,3.8C328,125.3,312.1,141.2,292.2,143z"
			/>
		<path class="st6" d="M290.7,47.7v-1.2c5.8-1.1,10.2-6.2,10.2-12.3c0-6.9-5.6-12.5-12.5-12.5c-6.9,0-12.5,5.6-12.5,12.5
			c0,6.1,4.4,11.2,10.2,12.3v1.2c-28.7,1.2-51.7,25-51.7,54c0,29.8,24.2,54,54,54c29.8,0,54-24.2,54-54
			C342.4,72.6,319.4,48.9,290.7,47.7z M280.1,34.1c0-4.6,3.7-8.3,8.3-8.3c4.6,0,8.3,3.7,8.3,8.3c0,3.8-2.5,7-6,8
			c-0.1-1.2-1.1-2.2-2.3-2.2c-1.2,0-2.2,1-2.3,2.2C282.6,41.1,280.1,37.9,280.1,34.1z M288.4,149.8c-26.5,0-48.1-21.6-48.1-48.1
			s21.6-48.1,48.1-48.1c26.5,0,48.1,21.6,48.1,48.1S314.9,149.8,288.4,149.8z"/>
		<path class="st6" d="M294.5,95.5L262,75.3l20.2,32.5l32.5,20.2L294.5,95.5z M288.4,105.7c-2.2,0-4-1.8-4-4c0-2.2,1.8-4,4-4
			c2.2,0,4,1.8,4,4C292.4,103.9,290.6,105.7,288.4,105.7z"/>
	</g>
	<g class="st2">
		<path class="st6" d="M332.8,248.3c-24.5,0-44.4,19.9-44.4,44.4c0,24.5,19.9,44.4,44.4,44.4s44.4-19.9,44.4-44.4
			C377.2,268.2,357.3,248.3,332.8,248.3z M336.6,334.1l-3.8-6.2l-3.8,6.2c-19.9-1.8-35.8-17.7-37.6-37.6l6.2-3.8l-6.2-3.8
			c1.8-19.9,17.7-35.8,37.6-37.6l3.8,6.2l3.8-6.2c19.9,1.8,35.8,17.7,37.6,37.6l-6.2,3.8l6.2,3.8
			C372.4,316.4,356.5,332.3,336.6,334.1z"/>
		<path class="st6" d="M335.1,238.7v-1.2c5.8-1.1,10.2-6.2,10.2-12.3c0-6.9-5.6-12.5-12.5-12.5c-6.9,0-12.5,5.6-12.5,12.5
			c0,6.1,4.4,11.2,10.2,12.3v1.2c-28.7,1.2-51.7,25-51.7,54c0,29.8,24.2,54,54,54s54-24.2,54-54
			C386.8,263.7,363.8,239.9,335.1,238.7z M324.5,225.2c0-4.6,3.7-8.3,8.3-8.3c4.6,0,8.3,3.7,8.3,8.3c0,3.8-2.5,7-6,8
			c-0.1-1.2-1.1-2.2-2.3-2.2s-2.2,1-2.3,2.2C327,232.1,324.5,228.9,324.5,225.2z M332.8,340.8c-26.5,0-48.1-21.6-48.1-48.1
			c0-26.5,21.6-48.1,48.1-48.1s48.1,21.6,48.1,48.1C380.9,319.2,359.3,340.8,332.8,340.8z"/>
		<path class="st6" d="M338.9,286.6l-32.5-20.2l20.2,32.5l32.5,20.2L338.9,286.6z M332.8,296.7c-2.2,0-4-1.8-4-4c0-2.2,1.8-4,4-4
			c2.2,0,4,1.8,4,4C336.8,294.9,335,296.7,332.8,296.7z"/>
	</g>
	<g class="st2">
		<path class="st6" d="M81.5,173.9c-24.5,0-44.4,19.9-44.4,44.4c0,24.5,19.9,44.4,44.4,44.4s44.4-19.9,44.4-44.4
			C125.9,193.8,106,173.9,81.5,173.9z M85.3,259.7l-3.8-6.2l-3.8,6.2c-19.9-1.8-35.8-17.7-37.6-37.6l6.2-3.8l-6.2-3.8
			c1.8-19.9,17.7-35.8,37.6-37.6l3.8,6.2l3.8-6.2c19.9,1.8,35.8,17.7,37.6,37.6l-6.2,3.8l6.2,3.8C121.1,242,105.2,257.9,85.3,259.7z
			"/>
		<path class="st6" d="M83.8,164.3v-1.2c5.8-1.1,10.2-6.2,10.2-12.3c0-6.9-5.6-12.5-12.5-12.5c-6.9,0-12.5,5.6-12.5,12.5
			c0,6.1,4.4,11.2,10.2,12.3v1.2c-28.7,1.2-51.7,25-51.7,54c0,29.8,24.2,54,54,54s54-24.2,54-54C135.6,189.3,112.6,165.5,83.8,164.3
			z M73.2,150.8c0-4.6,3.7-8.3,8.3-8.3c4.6,0,8.3,3.7,8.3,8.3c0,3.8-2.5,7-6,8c-0.1-1.2-1.1-2.2-2.3-2.2s-2.2,1-2.3,2.2
			C75.8,157.7,73.2,154.5,73.2,150.8z M81.5,266.4c-26.5,0-48.1-21.6-48.1-48.1s21.6-48.1,48.1-48.1s48.1,21.6,48.1,48.1
			S108.1,266.4,81.5,266.4z"/>
		<path class="st6" d="M87.7,212.2l-32.5-20.2l20.2,32.5l32.5,20.2L87.7,212.2z M81.5,222.3c-2.2,0-4-1.8-4-4c0-2.2,1.8-4,4-4
			c2.2,0,4,1.8,4,4C85.6,220.5,83.8,222.3,81.5,222.3z"/>
	</g>
</g>
<g id="Werbungs_Novize">
	<path class="st5" d="M141,285.5c0,13.8,0,27.6,0,41.4c0,4.4-0.8,5.2-5.3,5.2c-27.8,0-55.7,0-83.5,0.1c-4.1,0-5.2-1-5.2-5.1
		c0-27.9,0-55.9,0-83.8c0-3.9,1.2-5.1,5.2-5.1c27.8,0,55.7,0,83.5,0c4.3,0,5.3,1,5.3,5.3C141.1,257.5,141.1,271.5,141,285.5
		C141,285.5,141,285.5,141,285.5z M90.5,303c0-2.1,0-3.9,0-5.6c0-13.7-0.1-27.4,0.1-41.1c0-2.8-0.9-3.6-3.5-3.4
		c-2.1,0.2-4.3,0.1-6.5,0c-2.3-0.1-3,0.8-3,3.1c0.1,18.7,0.1,37.5,0,56.2c0,2.6,0.7,3.4,3.3,3.3c9.9-0.1,19.8-0.1,29.7-0.1
		c1.4,0,2.8,0,4.8,0c0-3.3-0.1-6.2,0-9.2c0.1-2.6-0.8-3.4-3.4-3.3C105.1,303.1,98.1,303,90.5,303z"/>
	<path class="st5" d="M378.3,223.8c0,13.8,0,27.6,0,41.4c0,4.4-0.8,5.2-5.3,5.2c-27.8,0-55.7,0-83.5,0.1c-4.1,0-5.2-1-5.2-5.1
		c0-27.9,0-55.9,0-83.8c0-3.9,1.2-5.1,5.2-5.1c27.8,0,55.7,0,83.5,0c4.3,0,5.3,1,5.3,5.3C378.3,195.7,378.3,209.7,378.3,223.8
		C378.3,223.8,378.3,223.8,378.3,223.8z M327.8,241.3c0-2.1,0-3.9,0-5.6c0-13.7-0.1-27.4,0.1-41.1c0-2.8-0.9-3.6-3.5-3.4
		c-2.1,0.2-4.3,0.1-6.5,0c-2.3-0.1-3,0.8-3,3.1c0.1,18.7,0.1,37.5,0,56.2c0,2.6,0.7,3.4,3.3,3.3c9.9-0.1,19.8-0.1,29.7-0.1
		c1.4,0,2.8,0,4.8,0c0-3.3-0.1-6.2,0-9.2c0.1-2.6-0.8-3.4-3.4-3.3C342.3,241.3,335.3,241.3,327.8,241.3z"/>
	<path class="st5" d="M167.1,107.8c0,13.8,0,27.6,0,41.4c0,4.4-0.8,5.2-5.3,5.2c-27.8,0-55.7,0-83.5,0.1c-4.1,0-5.2-1-5.2-5.1
		c0-27.9,0-55.9,0-83.8c0-3.9,1.2-5.1,5.2-5.1c27.8,0,55.7,0,83.5,0c4.3,0,5.3,1,5.3,5.3C167.2,79.8,167.2,93.8,167.1,107.8
		C167.2,107.8,167.2,107.8,167.1,107.8z M116.6,125.3c0-2.1,0-3.9,0-5.6c0-13.7-0.1-27.4,0.1-41.1c0-2.8-0.9-3.6-3.5-3.4
		c-2.1,0.2-4.3,0.1-6.5,0c-2.3-0.1-3,0.8-3,3.1c0.1,18.7,0.1,37.5,0,56.2c0,2.6,0.7,3.4,3.3,3.3c9.9-0.1,19.8-0.1,29.7-0.1
		c1.4,0,2.8,0,4.8,0c0-3.3-0.1-6.2,0-9.2c0.1-2.6-0.8-3.4-3.4-3.3C131.2,125.4,124.2,125.3,116.6,125.3z"/>
</g>
</svg>
